<?xml version="1.0" encoding="iso-8859-1"?>
<!-- Generator: Adobe Illustrator 18.0.0, SVG Export Plug-In . SVG Version: 6.00 Build 0)  -->
<!DOCTYPE svg PUBLIC "-//W3C//DTD SVG 1.1//EN" "http://www.w3.org/Graphics/SVG/1.1/DTD/svg11.dtd">
<svg xmlns="http://www.w3.org/2000/svg" xmlns:xlink="http://www.w3.org/1999/xlink" version="1.1" id="Capa_1" x="0px" y="0px" viewBox="0 0 442 442" style="enable-background:new 0 0 442 442;" xml:space="preserve" width="512px" height="512px">
<g>
	<path d="M385.535,68.464l-67-67C317.598,0.527,316.326,0,315,0H60c-2.762,0-5,2.239-5,5v432c0,2.761,2.238,5,5,5h322   c2.762,0,5-2.239,5-5V72C387,70.674,386.474,69.402,385.535,68.464z M320,17.071L369.929,67H320V17.071z M377,432H65V10h245v62   c0,2.761,2.238,5,5,5h62V432z" fill="#ff7633"/>
	<path d="M155.5,88h-46c-2.762,0-5,2.239-5,5v46c0,2.761,2.238,5,5,5h46c2.762,0,5-2.239,5-5V93C160.5,90.239,158.262,88,155.5,88z    M150.5,134h-36V98h36V134z" fill="#ff7633"/>
	<path d="M155.5,155.631h-46c-2.762,0-5,2.239-5,5v46c0,2.761,2.238,5,5,5h46c2.762,0,5-2.239,5-5v-46   C160.5,157.87,158.262,155.631,155.5,155.631z M150.5,201.631h-36v-36h36V201.631z" fill="#ff7633"/>
	<path d="M155.5,223.262h-46c-2.762,0-5,2.239-5,5v46c0,2.761,2.238,5,5,5h46c2.762,0,5-2.239,5-5v-46   C160.5,225.5,158.262,223.262,155.5,223.262z M150.5,269.262h-36v-36h36V269.262z" fill="#ff7633"/>
	<path d="M155.5,290.893h-46c-2.762,0-5,2.239-5,5v46c0,2.761,2.238,5,5,5h46c2.762,0,5-2.239,5-5v-46   C160.5,293.132,158.262,290.893,155.5,290.893z M150.5,336.893h-36v-36h36V336.893z" fill="#ff7633"/>
	<path d="M184.5,139c0,2.761,2.238,5,5,5h143c2.762,0,5-2.239,5-5s-2.238-5-5-5h-143C186.738,134,184.5,136.239,184.5,139z" fill="#ff7633"/>
	<path d="M332.5,201.631h-143c-2.762,0-5,2.239-5,5s2.238,5,5,5h143c2.762,0,5-2.239,5-5S335.262,201.631,332.5,201.631z" fill="#ff7633"/>
	<path d="M332.5,269.262h-143c-2.762,0-5,2.239-5,5s2.238,5,5,5h143c2.762,0,5-2.239,5-5S335.262,269.262,332.5,269.262z" fill="#ff7633"/>
	<path d="M332.5,336.893h-143c-2.762,0-5,2.239-5,5s2.238,5,5,5h143c2.762,0,5-2.239,5-5S335.262,336.893,332.5,336.893z" fill="#ff7633"/>
	<path d="M126.528,195.236c0.807,1.614,2.421,2.667,4.223,2.757c0.083,0.004,0.167,0.006,0.25,0.006c1.709,0,3.308-0.875,4.227-2.33   l12-19c1.475-2.334,0.777-5.423-1.558-6.897c-2.335-1.475-5.423-0.777-6.897,1.558l-7.266,11.504l-1.235-2.47   c-1.235-2.469-4.237-3.471-6.708-2.236c-2.47,1.235-3.471,4.238-2.235,6.708L126.528,195.236z" fill="#ff7633"/>
	<path d="M280,63c0-2.761-2.238-5-5-5H167c-2.762,0-5,2.239-5,5s2.238,5,5,5h108C277.762,68,280,65.761,280,63z" fill="#ff7633"/>
</g>
<g>
</g>
<g>
</g>
<g>
</g>
<g>
</g>
<g>
</g>
<g>
</g>
<g>
</g>
<g>
</g>
<g>
</g>
<g>
</g>
<g>
</g>
<g>
</g>
<g>
</g>
<g>
</g>
<g>
</g>
</svg>
