<?xml version="1.0"?>
<svg xmlns="http://www.w3.org/2000/svg" height="512px" viewBox="0 0 512.001 512.001" width="512px"><path d="m10 266c2.628906 0 5.210938-1.070312 7.070312-2.929688 1.859376-1.859374 2.929688-4.441406 2.929688-7.070312s-1.070312-5.210938-2.929688-7.070312c-1.859374-1.859376-4.441406-2.929688-7.070312-2.929688s-5.210938 1.070312-7.070312 2.929688c-1.859376 1.859374-2.929688 4.441406-2.929688 7.070312s1.070312 5.210938 2.929688 7.070312c1.859374 1.859376 4.441406 2.929688 7.070312 2.929688zm0 0" fill="#ff7633"/><path d="m54 432c0 14.335938 11.664062 26 26 26h48c14.335938 0 26-11.664062 26-26v-48c0-14.335938-11.664062-26-26-26h-48c-14.335938 0-26 11.664062-26 26zm20-48c0-3.308594 2.691406-6 6-6h48c3.308594 0 6 2.691406 6 6v48c0 3.308594-2.691406 6-6 6h-48c-3.308594 0-6-2.691406-6-6zm0 0" fill="#ff7633"/><path d="m54 280c0 14.335938 11.664062 26 26 26h48c14.335938 0 26-11.664062 26-26v-48c0-14.335938-11.664062-26-26-26h-48c-14.335938 0-26 11.664062-26 26zm20-48c0-3.308594 2.691406-6 6-6h48c3.308594 0 6 2.691406 6 6v48c0 3.308594-2.691406 6-6 6h-48c-3.308594 0-6-2.691406-6-6zm0 0" fill="#ff7633"/><path d="m80 154h48c14.335938 0 26-11.664062 26-26v-48c0-14.335938-11.664062-26-26-26h-48c-14.335938 0-26 11.664062-26 26v48c0 14.335938 11.664062 26 26 26zm-6-74c0-3.308594 2.691406-6 6-6h48c3.308594 0 6 2.691406 6 6v48c0 3.308594-2.691406 6-6 6h-48c-3.308594 0-6-2.691406-6-6zm0 0" fill="#ff7633"/><path d="m256.128906 114c5.519532 0 10-4.476562 10-10s-4.480468-10-10-10h-59.132812c-5.523438 0-10 4.476562-10 10s4.476562 10 10 10zm0 0" fill="#ff7633"/><path d="m242.003906 310v-.210938c.03125-5.523437-4.421875-10.027343-9.945312-10.054687-.019532 0-.039063 0-.054688 0-5.496094 0-9.96875 4.441406-10 9.945313v.320312c0 5.523438 4.476563 10 10 10 5.523438 0 10-4.476562 10-10zm0 0" fill="#ff7633"/><path d="m310.003906 222c-33.65625 0-64.816406 19.617188-79.382812 49.976562-2.386719 4.976563-.285156 10.953126 4.691406 13.339844 4.980469 2.390625 10.953125.289063 13.34375-4.6875 11.257812-23.46875 35.335938-38.628906 61.347656-38.628906 37.496094 0 68 30.503906 68 68s-30.503906 68-68 68c-25.058594 0-48.015625-13.71875-59.910156-35.804688-2.621094-4.859374-8.6875-6.679687-13.546875-4.058593-4.863281 2.617187-6.683594 8.683593-4.0625 13.546875 15.390625 28.570312 45.09375 46.316406 77.519531 46.316406 48.523438 0 88-39.476562 88-88s-39.476562-88-88-88zm0 0" fill="#ff7633"/><path d="m502.066406 454.113281-79.363281-79.367187c11-19.074219 17.300781-41.1875 17.300781-64.746094 0-34.769531-13.71875-66.390625-36.03125-89.742188v-112.269531c0-.066406-.011718-.128906-.019531-.195312-.050781-2.53125-1.042969-5.007813-2.90625-6.875l-97.988281-97.988281c-1.8125-1.8125-4.207032-2.8125-6.664063-2.914063-.125-.0078125-.253906-.015625-.40625-.015625h-265.988281c-16.542969 0-30 13.457031-30 30v186c0 5.523438 4.476562 10 10 10s10-4.476562 10-10v-186c0-5.515625 4.484375-10 10-10h255.988281v67.988281c0 16.542969 13.457031 30 30 30h67.984375v85.171875c-21.007812-14.59375-46.503906-23.160156-73.96875-23.160156-71.683594 0-130 58.316406-130 130s58.316406 130 130 130c23.554688 0 45.667969-6.300781 64.742188-17.300781l9.226562 9.230469v50.070312c0 5.515625-4.484375 10-10 10h-343.972656c-5.515625 0-10-4.484375-10-10v-186c0-5.523438-4.476562-10-10-10s-10 4.476562-10 10v186c0 16.542969 13.457031 30 30 30h343.976562c16.539063 0 30-13.457031 30-30v-30.070312l50.136719 50.140624c6.40625 6.402344 14.921875 9.929688 23.980469 9.929688 9.054688 0 17.570312-3.527344 23.976562-9.929688 6.402344-6.40625 9.929688-14.921874 9.929688-23.980468 0-9.054688-3.527344-17.570313-9.933594-23.976563zm-186.078125-356.125c-5.515625 0-10-4.484375-10-10v-53.84375l63.84375 63.84375zm-115.984375 212.011719c0-60.652344 49.347656-110 110-110s110 49.347656 110 110-49.347656 110-110 110-110-49.347656-110-110zm287.921875 177.925781c-2.625 2.628907-6.121093 4.074219-9.835937 4.074219s-7.207032-1.445312-9.832032-4.074219l-76.738281-76.738281c7.234375-5.839844 13.828125-12.433594 19.667969-19.667969l76.738281 76.738281c2.625 2.625 4.074219 6.117188 4.074219 9.832032s-1.445312 7.210937-4.074219 9.835937zm0 0" fill="#ff7633"/><path d="m335 310c0 5.523438 4.476562 10 10 10s10-4.476562 10-10c0-24.8125-20.183594-44.996094-44.996094-44.996094-5.523437 0-10 4.476563-10 10 0 5.523438 4.476563 10 10 10 13.78125 0 24.996094 11.214844 24.996094 24.996094zm0 0" fill="#ff7633"/></svg>
