<?xml version="1.0"?>
<svg xmlns="http://www.w3.org/2000/svg" height="512px" viewBox="0 0 512 511" width="512px"><path d="m168 138.5h-104c-5.523438 0-10 4.476562-10 10s4.476562 10 10 10h104c5.523438 0 10-4.476562 10-10s-4.476562-10-10-10zm0 0" fill="#ff7633"/><path d="m210 158.5c2.628906 0 5.210938-1.070312 7.070312-2.929688 1.859376-1.859374 2.929688-4.441406 2.929688-7.070312s-1.070312-5.210938-2.929688-7.070312c-1.859374-1.859376-4.441406-2.929688-7.070312-2.929688s-5.210938 1.070312-7.070312 2.929688c-1.859376 1.859374-2.929688 4.441406-2.929688 7.070312s1.070312 5.210938 2.929688 7.070312c1.859374 1.859376 4.441406 2.929688 7.070312 2.929688zm0 0" fill="#ff7633"/><path d="m164 198.5h-100c-5.523438 0-10 4.476562-10 10s4.476562 10 10 10h100c5.523438 0 10-4.476562 10-10s-4.476562-10-10-10zm0 0" fill="#ff7633"/><path d="m164 258.5h-100c-5.523438 0-10 4.476562-10 10s4.476562 10 10 10h100c5.523438 0 10-4.476562 10-10s-4.476562-10-10-10zm0 0" fill="#ff7633"/><path d="m64 56.5c2.628906 0 5.210938-1.070312 7.070312-2.929688 1.859376-1.859374 2.929688-4.441406 2.929688-7.070312s-1.070312-5.210938-2.929688-7.070312c-1.859374-1.859376-4.441406-2.929688-7.070312-2.929688s-5.210938 1.070312-7.070312 2.929688c-1.859376 1.859374-2.929688 4.441406-2.929688 7.070312s1.070312 5.210938 2.929688 7.070312c1.859374 1.859376 4.441406 2.929688 7.070312 2.929688zm0 0" fill="#ff7633"/><path d="m105.671875 56.5c2.628906 0 5.207031-1.070312 7.066406-2.929688 1.863281-1.859374 2.933594-4.441406 2.933594-7.070312s-1.070313-5.210938-2.933594-7.070312c-1.859375-1.859376-4.4375-2.929688-7.066406-2.929688-2.640625 0-5.210937 1.070312-7.082031 2.929688-1.859375 1.859374-2.917969 4.441406-2.917969 7.070312s1.058594 5.210938 2.917969 7.070312c1.871094 1.859376 4.441406 2.929688 7.082031 2.929688zm0 0" fill="#ff7633"/><path d="m147.328125 56.5c2.640625 0 5.210937-1.070312 7.082031-2.929688 1.859375-1.859374 2.917969-4.441406 2.917969-7.070312s-1.058594-5.210938-2.917969-7.070312c-1.871094-1.859376-4.441406-2.929688-7.082031-2.929688-2.628906 0-5.207031 1.070312-7.066406 2.929688-1.863281 1.859374-2.933594 4.441406-2.933594 7.070312s1.070313 5.210938 2.933594 7.070312c1.859375 1.859376 4.4375 2.929688 7.066406 2.929688zm0 0" fill="#ff7633"/><path d="m210 56.5h151.667969c5.523437 0 10-4.476562 10-10s-4.476563-10-10-10h-151.667969c-5.523438 0-10 4.476562-10 10s4.476562 10 10 10zm0 0" fill="#ff7633"/><path d="m310.003906 222.5c-48.523437 0-88 39.476562-88 88s39.476563 88 88 88c48.523438 0 88-39.476562 88-88s-39.476562-88-88-88zm0 156c-37.496094 0-68-30.503906-68-68s30.503906-68 68-68 68 30.503906 68 68-30.503906 68-68 68zm0 0" fill="#ff7633"/><path d="m502.066406 454.613281-79.363281-79.367187c11-19.074219 17.300781-41.1875 17.300781-64.746094 0-25.421875-7.339844-49.15625-20.003906-69.210938v-206.789062c0-18.746094-15.253906-34-34-34h-352c-18.746094 0-34 15.253906-34 34v300c0 18.746094 15.253906 34 34 34h159.683594c21.351562 42.648438 65.46875 72 116.320312 72 23.554688 0 45.667969-6.300781 64.742188-17.300781l79.367187 79.367187c6.609375 6.613282 15.292969 9.917969 23.976563 9.917969s17.367187-3.304687 23.976562-9.917969c6.40625-6.402344 9.933594-14.917968 9.933594-23.976562 0-9.054688-3.527344-17.570313-9.933594-23.976563zm-468.066406-434.113281h352c7.71875 0 14 6.28125 14 14v38h-380v-38c0-7.71875 6.28125-14 14-14zm0 328c-7.71875 0-14-6.28125-14-14v-242h380v124.277344c-23.375-22.453125-55.101562-36.277344-89.996094-36.277344-71.683594 0-130 58.316406-130 130 0 13.214844 1.988282 25.976562 5.671875 38zm166.003906-38c0-60.652344 49.347656-110 110-110s110 49.347656 110 110-49.347656 110-110 110-110-49.347656-110-110zm287.921875 177.925781c-5.421875 5.425781-14.246093 5.421875-19.667969 0l-76.738281-76.738281c7.234375-5.839844 13.828125-12.433594 19.667969-19.667969l76.738281 76.734375c2.628907 2.628906 4.074219 6.121094 4.074219 9.835938s-1.445312 7.210937-4.074219 9.835937zm0 0" fill="#ff7633"/><path d="m310.003906 265.503906c-5.523437 0-10 4.476563-10 10 0 5.523438 4.476563 10 10 10 13.78125 0 24.996094 11.214844 24.996094 24.996094 0 5.523438 4.476562 10 10 10s10-4.476562 10-10c0-24.8125-20.183594-44.996094-44.996094-44.996094zm0 0" fill="#ff7633"/></svg>
