<?xml version="1.0" encoding="UTF-8" standalone="no"?>
<!-- Created with Inkscape (http://www.inkscape.org/) -->

<svg
   xmlns:dc="http://purl.org/dc/elements/1.1/"
   xmlns:cc="http://creativecommons.org/ns#"
   xmlns:rdf="http://www.w3.org/1999/02/22-rdf-syntax-ns#"
   xmlns:svg="http://www.w3.org/2000/svg"
   xmlns="http://www.w3.org/2000/svg"
   xmlns:sodipodi="http://sodipodi.sourceforge.net/DTD/sodipodi-0.dtd"
   xmlns:inkscape="http://www.inkscape.org/namespaces/inkscape"
   width="48"
   height="48"
   viewBox="0 0 12.7 12.7"
   version="1.1"
   id="svg2216"
   inkscape:version="0.92.3 (2405546, 2018-03-11)"
   sodipodi:docname="logo.svg"
   inkscape:export-filename="C:\Users\user\Desktop\nuevo proyecto\landing page\img\logo.png"
   inkscape:export-xdpi="32.63269"
   inkscape:export-ydpi="32.63269">
  <defs
     id="defs2210" />
  <sodipodi:namedview
     id="base"
     pagecolor="#ffffff"
     bordercolor="#666666"
     borderopacity="1.0"
     inkscape:pageopacity="0.0"
     inkscape:pageshadow="2"
     inkscape:zoom="11.2"
     inkscape:cx="13.95048"
     inkscape:cy="21.919944"
     inkscape:document-units="mm"
     inkscape:current-layer="layer1"
     showgrid="false"
     units="px"
     inkscape:window-width="1366"
     inkscape:window-height="705"
     inkscape:window-x="-8"
     inkscape:window-y="-8"
     inkscape:window-maximized="1" />
  <metadata
     id="metadata2213">
    <rdf:RDF>
      <cc:Work
         rdf:about="">
        <dc:format>image/svg+xml</dc:format>
        <dc:type
           rdf:resource="http://purl.org/dc/dcmitype/StillImage" />
        <dc:title />
      </cc:Work>
    </rdf:RDF>
  </metadata>
  <g
     inkscape:label="Layer 1"
     inkscape:groupmode="layer"
     id="layer1"
     transform="translate(0,-284.3)">
    <path
       inkscape:connector-curvature="0"
       style="opacity:1;fill:#000000;fill-opacity:1;stroke:#000000;stroke-width:0.1;stroke-miterlimit:4;stroke-dasharray:none;stroke-opacity:0.5"
       d="m 6.3142426,284.50887 a 5.4689121,6.1770109 0 0 0 -5.46891681,6.17689 5.4689121,6.1770109 0 0 0 5.46891681,6.17688 5.4689121,6.1770109 0 0 0 5.4689164,-6.17688 5.4689121,6.1770109 0 0 0 -5.4689164,-6.17689 z m 0,1.12242 a 4.4749021,5.0542994 0 0 1 4.4751784,5.05447 4.4749021,5.0542994 0 0 1 -4.4751784,5.05447 4.4749021,5.0542994 0 0 1 -4.4746625,-5.05447 4.4749021,5.0542994 0 0 1 4.4746625,-5.05447 z"
       id="ellipse3647" />
    <g
       id="g3651"
       style="font-style:normal;font-variant:normal;font-weight:normal;font-stretch:extra-condensed;font-size:22.11962509px;line-height:0;font-family:Algerian;-inkscape-font-specification:'Algerian Extra-Condensed';text-align:start;letter-spacing:0px;word-spacing:0px;writing-mode:lr-tb;text-anchor:start;fill:#010000;fill-opacity:1;stroke:none;stroke-width:4.14742899"
       transform="matrix(0.57148881,0,0,0.50817021,-4.9224878,275.09082)"
       aria-label="J">
      <path
         sodipodi:nodetypes="cccsccscccccscssccccccccccscccscccsccc"
         inkscape:connector-curvature="0"
         id="path3649"
         style="font-style:normal;font-variant:normal;font-weight:normal;font-stretch:extra-condensed;line-height:0;font-family:Algerian;-inkscape-font-specification:'Algerian Extra-Condensed';text-align:start;writing-mode:lr-tb;text-anchor:start;fill:#000000;fill-opacity:1;stroke-width:0.18556307;stroke:#000000;stroke-opacity:0.5;stroke-miterlimit:4;stroke-dasharray:none"
         d="m 23.977075,23.340081 -1.458081,1.45808 v 8.024845 0.345619 c 0,0.54003 0.18001,0.90725 0.54003,1.101661 -0.0864,0.943252 -0.54363,1.713695 -1.371676,2.311328 -0.828046,0.590433 -1.857703,0.885649 -3.088971,0.885649 -2.268126,0 -3.726207,-0.889249 -4.374242,-2.667748 l -0.151209,-0.410422 c -0.072,-0.208812 -0.162009,-0.34922 -0.270015,-0.421224 -0.100805,-0.0792 -0.298816,-0.144007 -0.594033,-0.19441 l 3.229379,-2.408534 c -0.115206,0.705639 -0.172809,1.418479 -0.172809,2.138519 0,0.972053 0.130996,0.981244 0.512617,1.564477 0.471206,0.284964 0.150542,0.170965 0.728698,0.249286 1.296087,0.175577 2.852111,0.349956 2.852111,-1.716559 V 24.668553 L 18.889993,23.34008 Z m 0.442824,0.604833 -1.058458,1.08006 v 7.895237 0.421224 l 0.151208,0.658836 c 0.09361,0.187211 0.291616,0.378021 0.594033,0.572432 -0.100805,0.612034 -0.410423,1.238469 -0.928852,1.879304 -1.044057,1.303272 -2.509338,1.954908 -4.395843,1.954908 -1.44008,0 -2.592144,-0.414023 -3.456191,-1.242069 v -0.0864 c 0.540029,0.410423 1.047657,0.694838 1.522884,0.853247 0.475226,0.151208 1.065659,0.226812 1.771298,0.226812 1.252869,0 2.368931,-0.331218 3.348185,-0.993655 0.986455,-0.669637 1.591288,-1.501283 1.814501,-2.494938 -0.331219,-0.266415 -0.53283,-0.493227 -0.604834,-0.680438 -0.072,-0.18721 -0.108005,-0.565231 -0.108005,-1.134062 v -7.949241 l 1.188065,-1.188065 z" />
    </g>
    <path
       style="fill:#010000;stroke:#000000;stroke-width:0.065;stroke-linecap:butt;stroke-linejoin:miter;stroke-opacity:1;stroke-miterlimit:4;stroke-dasharray:none;fill-opacity:1"
       d="m 2.9733735,285.10651 c 0,0 -1.6370259,0.63476 -2.37201708,2.83973 0.0760116,0.13129 -0.10179133,-2.87741 2.37201708,-2.83973 z"
       id="path2800"
       inkscape:connector-curvature="0"
       sodipodi:nodetypes="ccc" />
    <path
       sodipodi:nodetypes="ccc"
       inkscape:connector-curvature="0"
       id="path2802"
       d="m 2.9733735,285.10651 c 0,0 -1.6370259,0.63476 -2.37201708,2.83973 0.0760116,0.13129 -0.10179133,-2.87741 2.37201708,-2.83973 z"
       style="fill:#000000;stroke:#000000;stroke-width:0.1;stroke-linecap:butt;stroke-linejoin:miter;stroke-opacity:0.5;stroke-miterlimit:4;stroke-dasharray:none;fill-opacity:1" />
    <path
       style="fill:#000000;fill-opacity:1;stroke:#000000;stroke-width:0.1;stroke-linecap:butt;stroke-linejoin:miter;stroke-miterlimit:4;stroke-dasharray:none;stroke-opacity:0.5"
       d="m 9.6217015,296.26883 c 0,0 1.6370195,-0.63476 2.3720195,-2.83973 -0.076,-0.13129 0.10179,2.87741 -2.3720195,2.83973 z"
       id="path2804"
       inkscape:connector-curvature="0"
       sodipodi:nodetypes="ccc" />
  </g>
</svg>
