<?xml version="1.0" encoding="UTF-8" standalone="no"?>
<!-- Created with Inkscape (http://www.inkscape.org/) -->

<svg
   xmlns:dc="http://purl.org/dc/elements/1.1/"
   xmlns:cc="http://creativecommons.org/ns#"
   xmlns:rdf="http://www.w3.org/1999/02/22-rdf-syntax-ns#"
   xmlns:svg="http://www.w3.org/2000/svg"
   xmlns="http://www.w3.org/2000/svg"
   xmlns:sodipodi="http://sodipodi.sourceforge.net/DTD/sodipodi-0.dtd"
   xmlns:inkscape="http://www.inkscape.org/namespaces/inkscape"
   width="32px"
   height="32px"
   viewBox="0 0 32 32"
   version="1.1"
   id="SVGRoot"
   inkscape:version="0.92.3 (2405546, 2018-03-11)"
   sodipodi:docname="zeldris.svg">
  <sodipodi:namedview
     id="base"
     pagecolor="#ffffff"
     bordercolor="#666666"
     borderopacity="1.0"
     inkscape:pageopacity="0.0"
     inkscape:pageshadow="2"
     inkscape:zoom="8"
     inkscape:cx="-17.336443"
     inkscape:cy="19.345193"
     inkscape:document-units="px"
     inkscape:current-layer="layer1"
     showgrid="false"
     inkscape:window-width="1366"
     inkscape:window-height="705"
     inkscape:window-x="-8"
     inkscape:window-y="-8"
     inkscape:window-maximized="1"
     inkscape:grid-bbox="true" />
  <defs
     id="defs145">
    <inkscape:path-effect
       effect="skeletal"
       id="path-effect123"
       is_visible="true"
       pattern="M 0,5 C 0,2.24 2.24,0 5,0 7.76,0 10,2.24 10,5 10,7.76 7.76,10 5,10 2.24,10 0,7.76 0,5 Z"
       copytype="single_stretched"
       prop_scale="1"
       scale_y_rel="false"
       spacing="0"
       normal_offset="0"
       tang_offset="0"
       prop_units="false"
       vertical_pattern="false"
       fuse_tolerance="0" />
    <inkscape:path-effect
       effect="skeletal"
       id="path-effect139"
       is_visible="true"
       pattern="M 0,5 C 0,2.24 2.24,0 5,0 7.76,0 10,2.24 10,5 10,7.76 7.76,10 5,10 2.24,10 0,7.76 0,5 Z"
       copytype="single_stretched"
       prop_scale="0.43994012"
       scale_y_rel="false"
       spacing="0"
       normal_offset="0"
       tang_offset="0"
       prop_units="false"
       vertical_pattern="false"
       fuse_tolerance="0" />
    <inkscape:path-effect
       effect="skeletal"
       id="path-effect147"
       is_visible="true"
       pattern="M 0,5 C 0,2.24 2.24,0 5,0 7.76,0 10,2.24 10,5 10,7.76 7.76,10 5,10 2.24,10 0,7.76 0,5 Z"
       copytype="single_stretched"
       prop_scale="1"
       scale_y_rel="false"
       spacing="0"
       normal_offset="0"
       tang_offset="0"
       prop_units="false"
       vertical_pattern="false"
       fuse_tolerance="0" />
    <inkscape:path-effect
       effect="skeletal"
       id="path-effect151"
       is_visible="true"
       pattern="M 0,5 C 0,2.24 2.24,0 5,0 7.76,0 10,2.24 10,5 10,7.76 7.76,10 5,10 2.24,10 0,7.76 0,5 Z"
       copytype="single_stretched"
       prop_scale="1"
       scale_y_rel="false"
       spacing="0"
       normal_offset="0"
       tang_offset="0"
       prop_units="false"
       vertical_pattern="false"
       fuse_tolerance="0" />
    <inkscape:path-effect
       effect="skeletal"
       id="path-effect155"
       is_visible="true"
       pattern="M 0,5 C 0,2.24 2.24,0 5,0 7.76,0 10,2.24 10,5 10,7.76 7.76,10 5,10 2.24,10 0,7.76 0,5 Z"
       copytype="single_stretched"
       prop_scale="1"
       scale_y_rel="false"
       spacing="0"
       normal_offset="0"
       tang_offset="0"
       prop_units="false"
       vertical_pattern="false"
       fuse_tolerance="0" />
    <inkscape:path-effect
       effect="skeletal"
       id="path-effect159"
       is_visible="true"
       pattern="M 0,5 C 0,2.24 2.24,0 5,0 7.76,0 10,2.24 10,5 10,7.76 7.76,10 5,10 2.24,10 0,7.76 0,5 Z"
       copytype="single_stretched"
       prop_scale="1"
       scale_y_rel="false"
       spacing="0"
       normal_offset="0"
       tang_offset="0"
       prop_units="false"
       vertical_pattern="false"
       fuse_tolerance="0" />
    <inkscape:path-effect
       effect="skeletal"
       id="path-effect163"
       is_visible="true"
       pattern="M 0,5 C 0,2.24 2.24,0 5,0 7.76,0 10,2.24 10,5 10,7.76 7.76,10 5,10 2.24,10 0,7.76 0,5 Z"
       copytype="single_stretched"
       prop_scale="1"
       scale_y_rel="false"
       spacing="0"
       normal_offset="0"
       tang_offset="0"
       prop_units="false"
       vertical_pattern="false"
       fuse_tolerance="0" />
    <inkscape:path-effect
       effect="skeletal"
       id="path-effect167"
       is_visible="true"
       pattern="M 0,5 C 0,2.24 2.24,0 5,0 7.76,0 10,2.24 10,5 10,7.76 7.76,10 5,10 2.24,10 0,7.76 0,5 Z"
       copytype="single_stretched"
       prop_scale="1"
       scale_y_rel="false"
       spacing="0"
       normal_offset="0"
       tang_offset="0"
       prop_units="false"
       vertical_pattern="false"
       fuse_tolerance="0" />
    <inkscape:path-effect
       effect="skeletal"
       id="path-effect171"
       is_visible="true"
       pattern="M 0,5 C 0,2.24 2.24,0 5,0 7.76,0 10,2.24 10,5 10,7.76 7.76,10 5,10 2.24,10 0,7.76 0,5 Z"
       copytype="single_stretched"
       prop_scale="1"
       scale_y_rel="false"
       spacing="0"
       normal_offset="0"
       tang_offset="0"
       prop_units="false"
       vertical_pattern="false"
       fuse_tolerance="0" />
    <inkscape:path-effect
       effect="skeletal"
       id="path-effect175"
       is_visible="true"
       pattern="M 0,5 C 0,2.24 2.24,0 5,0 7.76,0 10,2.24 10,5 10,7.76 7.76,10 5,10 2.24,10 0,7.76 0,5 Z"
       copytype="single_stretched"
       prop_scale="1"
       scale_y_rel="false"
       spacing="0"
       normal_offset="0"
       tang_offset="0"
       prop_units="false"
       vertical_pattern="false"
       fuse_tolerance="0" />
    <inkscape:path-effect
       effect="skeletal"
       id="path-effect179"
       is_visible="true"
       pattern="M 0,5 C 0,2.24 2.24,0 5,0 7.76,0 10,2.24 10,5 10,7.76 7.76,10 5,10 2.24,10 0,7.76 0,5 Z"
       copytype="single_stretched"
       prop_scale="1"
       scale_y_rel="false"
       spacing="0"
       normal_offset="0"
       tang_offset="0"
       prop_units="false"
       vertical_pattern="false"
       fuse_tolerance="0" />
    <inkscape:path-effect
       effect="skeletal"
       id="path-effect183"
       is_visible="true"
       pattern="M 0,5 C 0,2.24 2.24,0 5,0 7.76,0 10,2.24 10,5 10,7.76 7.76,10 5,10 2.24,10 0,7.76 0,5 Z"
       copytype="single_stretched"
       prop_scale="1"
       scale_y_rel="false"
       spacing="0"
       normal_offset="0"
       tang_offset="0"
       prop_units="false"
       vertical_pattern="false"
       fuse_tolerance="0" />
    <inkscape:path-effect
       effect="skeletal"
       id="path-effect187"
       is_visible="true"
       pattern="M 0,5 C 0,2.24 2.24,0 5,0 7.76,0 10,2.24 10,5 10,7.76 7.76,10 5,10 2.24,10 0,7.76 0,5 Z"
       copytype="single_stretched"
       prop_scale="1"
       scale_y_rel="false"
       spacing="0"
       normal_offset="0"
       tang_offset="0"
       prop_units="false"
       vertical_pattern="false"
       fuse_tolerance="0" />
    <inkscape:path-effect
       effect="skeletal"
       id="path-effect195"
       is_visible="true"
       pattern="M 0,5 C 0,2.24 2.24,0 5,0 7.76,0 10,2.24 10,5 10,7.76 7.76,10 5,10 2.24,10 0,7.76 0,5 Z"
       copytype="single_stretched"
       prop_scale="1"
       scale_y_rel="false"
       spacing="0"
       normal_offset="0"
       tang_offset="0"
       prop_units="false"
       vertical_pattern="false"
       fuse_tolerance="0" />
    <inkscape:path-effect
       effect="skeletal"
       id="path-effect199"
       is_visible="true"
       pattern="M 0,5 C 0,2.24 2.24,0 5,0 7.76,0 10,2.24 10,5 10,7.76 7.76,10 5,10 2.24,10 0,7.76 0,5 Z"
       copytype="single_stretched"
       prop_scale="1"
       scale_y_rel="false"
       spacing="0"
       normal_offset="0"
       tang_offset="0"
       prop_units="false"
       vertical_pattern="false"
       fuse_tolerance="0" />
    <inkscape:path-effect
       effect="skeletal"
       id="path-effect203"
       is_visible="true"
       pattern="M 0,5 C 0,2.24 2.24,0 5,0 7.76,0 10,2.24 10,5 10,7.76 7.76,10 5,10 2.24,10 0,7.76 0,5 Z"
       copytype="single_stretched"
       prop_scale="0.33845195"
       scale_y_rel="false"
       spacing="0"
       normal_offset="0"
       tang_offset="0"
       prop_units="false"
       vertical_pattern="false"
       fuse_tolerance="0" />
    <inkscape:path-effect
       effect="skeletal"
       id="path-effect211"
       is_visible="true"
       pattern="M 0,5 C 0,2.24 2.24,0 5,0 7.76,0 10,2.24 10,5 10,7.76 7.76,10 5,10 2.24,10 0,7.76 0,5 Z"
       copytype="single_stretched"
       prop_scale="1.4863571"
       scale_y_rel="false"
       spacing="0"
       normal_offset="0"
       tang_offset="0"
       prop_units="false"
       vertical_pattern="false"
       fuse_tolerance="0" />
    <inkscape:path-effect
       effect="skeletal"
       id="path-effect215"
       is_visible="true"
       pattern="M 0,5 C 0,2.24 2.24,0 5,0 7.76,0 10,2.24 10,5 10,7.76 7.76,10 5,10 2.24,10 0,7.76 0,5 Z"
       copytype="single_stretched"
       prop_scale="1"
       scale_y_rel="false"
       spacing="0"
       normal_offset="0"
       tang_offset="0"
       prop_units="false"
       vertical_pattern="false"
       fuse_tolerance="0" />
    <inkscape:path-effect
       effect="skeletal"
       id="path-effect219"
       is_visible="true"
       pattern="M 0,5 C 0,2.24 2.24,0 5,0 7.76,0 10,2.24 10,5 10,7.76 7.76,10 5,10 2.24,10 0,7.76 0,5 Z"
       copytype="single_stretched"
       prop_scale="1"
       scale_y_rel="false"
       spacing="0"
       normal_offset="0"
       tang_offset="0"
       prop_units="false"
       vertical_pattern="false"
       fuse_tolerance="0" />
    <inkscape:path-effect
       effect="skeletal"
       id="path-effect223"
       is_visible="true"
       pattern="M 0,5 C 0,2.24 2.24,0 5,0 7.76,0 10,2.24 10,5 10,7.76 7.76,10 5,10 2.24,10 0,7.76 0,5 Z"
       copytype="single_stretched"
       prop_scale="1"
       scale_y_rel="false"
       spacing="0"
       normal_offset="0"
       tang_offset="0"
       prop_units="false"
       vertical_pattern="false"
       fuse_tolerance="0" />
  </defs>
  <metadata
     id="metadata148">
    <rdf:RDF>
      <cc:Work
         rdf:about="">
        <dc:format>image/svg+xml</dc:format>
        <dc:type
           rdf:resource="http://purl.org/dc/dcmitype/StillImage" />
        <dc:title></dc:title>
      </cc:Work>
    </rdf:RDF>
  </metadata>
  <g
     id="layer1"
     inkscape:groupmode="layer"
     inkscape:label="Layer 1">
    <g
       style="display:inline"
       id="g254"
       transform="matrix(0.03521555,0,0,0.04143242,2.7418184,-4.7094195)">
      <path
         sodipodi:nodetypes="cccccccccccccccccccc"
         inkscape:original-d="m 462.88579,405.2978 c 0,0 127.26348,-83.59592 176.54985,-75.26876 0,0 -60.66811,-41.03508 -164.08279,-22.01081 0,0 157.71731,-86.98701 194.73562,-74.28646 0,0 -150.36242,-97.68068 -311.9376,27.51351 0,0 20.86059,-90.43181 113.901,-136.97152 0,0 -278.4771,-42.159959 -352.63707,251.42423 0,0 -46.221805,-7.71587 -58.776672,-114.45271 0,0 -79.024145,101.90481 31.99224,153.14748 0,0 -173.536168,90.80558 14.888562,197.19113 0,0 -116.9934024,-90.4584 7.24488,-162.75116 0,0 -2.6249,-59.54058 120.20366,-43.28925 l -48.4496,9.079 59.83641,18.94226 -11.38681,12.18571 30.56504,7.58597 34.45942,24.839 -4.82794,-46.77066 43.07763,-5.10929 23.36748,27.70583"
         inkscape:path-effect="#path-effect123"
         inkscape:connector-curvature="0"
         id="path121"
         d="m 462.88579,405.2978 c -0.16839,-0.26897 6.76498,-4.97603 20.18018,-13.72996 1e-5,-10e-6 2e-5,-10e-6 2e-5,-10e-6 10.92391,-6.91246 28.19805,-17.45054 48.85113,-28.51326 15.61233,-8.36485 36.22227,-18.83629 58.41097,-26.8603 8.3153,-3.0092 17.41327,-5.87995 26.9456,-7.67847 6.74835,-0.64598 14.20022,-0.74436 21.67224,1.31933 -0.0109,0.0224 -0.0593,0.12195 -0.0702,0.14431 -5.1e-4,0.001 -0.20197,0.41439 -0.20248,0.41544 -0.26608,0.54525 -0.53345,1.09038 -0.80203,1.63528 -0.16156,-0.10397 -0.32791,-0.20856 -0.49863,-0.31466 -0.66326,-0.41221 -1.3438,-0.81434 -2.03905,-1.21407 -2.61896,-1.5058 -5.33771,-2.90517 -8.14687,-4.25053 -9.85463,-4.71965 -20.4646,-8.56307 -31.78564,-11.67593 -35.74827,-10.55909 -76.75196,-13.21165 -120.53003,-6.38894 7.92222,-5.42165 15.95875,-10.96328 24.11212,-16.6269 18.54283,-9.68961 38.07983,-19.44917 58.337,-28.7983 10.85123,-5.00802 22.03318,-9.95137 33.46956,-14.62557 10.35606,-4.23378 21.06962,-8.32342 32.07796,-11.86601 8.81952,-2.84639 18.05275,-5.46443 27.64562,-6.92065 3.6578,-0.5582 7.46103,-0.93191 11.36473,-0.87485 2.50546,1.24148 5.22425,2.83118 7.94827,5.14478 -9.07631,-3.15873 -18.24763,-6.32406 -27.51649,-9.49746 -21.32024,-9.17066 -44.3008,-15.79939 -68.25526,-19.36634 -31.70249,-4.73736 -65.20009,-3.8692 -98.01085,3.72755 -19.10535,4.41911 -37.95201,11.07433 -56.14392,19.7616 -21.80199,9.07265 -42.72147,20.68832 -62.59009,34.30635 -0.0789,-0.0586 -0.15788,-0.11708 -0.23683,-0.17559 0.004,0.003 -0.6913,-0.51199 -0.68695,-0.50877 -0.90189,-0.66745 -1.804,-1.33304 -2.70646,-1.99679 0.0696,-0.28502 0.14008,-0.56289 0.21038,-0.8339 0.2717,-1.04735 0.55993,-2.07744 0.85657,-3.09244 0,0 3e-5,-10e-5 3e-5,-10e-5 1.10798,-3.79107 2.36714,-7.51993 3.72551,-11.19864 4.71142,-12.76234 10.66994,-25.12538 17.6708,-36.96426 9.76408,-16.51992 21.64159,-32.03046 35.47461,-45.87671 17.14371,-15.33563 37.18993,-28.0641 59.23686,-37.37682 -0.72061,0.0432 -42.81936,2.60181 -43.53996,2.64504 -15.49615,0.37525 -31.06029,1.73813 -46.55581,4.12412 -18.7691,2.87921 -37.44161,7.25731 -55.66688,13.31172 -20.40857,6.78019 -40.28144,15.68041 -58.97103,26.81305 -20.59781,12.26601 -39.76455,27.27502 -56.75378,44.63974 -7.59346,7.75744 -14.74821,15.98339 -21.45396,24.61095 -10.38787,13.36495 -19.60968,27.57955 -27.67053,42.33232 -17.34461,30.26539 -30.04887,62.75117 -39.31317,95.61382 0.0647,0.008 -11.06709,-1.30269 -11.00241,-1.29508 -7.45858,-3.97783 -13.734623,-9.52614 -18.967009,-15.60964 -9.133117,-10.69858 -15.598471,-23.15282 -20.451575,-35.78679 -6.503147,-20.45693 -9.216915,-41.95404 -10.235807,-63.08375 0.04544,-0.13257 -6.10008,17.75044 -6.054632,17.61787 -6.78464,12.40327 -11.986942,25.51471 -14.453242,39.03362 -1.441143,7.82637 -1.967034,15.74902 -1.242728,23.48553 0.768143,8.28255 2.97901,16.39676 6.583199,23.76551 0,0 4.4e-5,9e-5 4.4e-5,9e-5 4.189062,8.62498 10.336625,16.30881 17.480943,22.83578 9.43844,9.92519 20.644268,17.91221 32.322826,24.64179 -4e-6,0 -8.9e-5,8e-5 -8.9e-5,8e-5 0.139102,-0.11636 -23.899227,19.95565 -23.760125,19.83929 -7.214433,5.50124 -13.996178,11.43169 -20.142884,17.88097 -6.854636,7.18625 -12.925762,14.94058 -17.57417,23.37518 -4.766518,8.66555 -8.041065,18.03991 -8.905509,27.54618 -0.473628,5.04824 -0.296301,10.14822 0.503095,15.12741 0.882554,5.5289 2.548354,10.94749 4.784535,16.1151 5.760023,13.40802 15.389421,25.06536 26.005639,35.27905 15.224388,16.61614 33.23752,30.13884 51.431909,42.01949 -0.006,-0.004 -0.17773,0.21119 -0.17766,0.21111 4.7e-4,-5.6e-4 -0.51857,0.61694 -0.51809,0.61638 -0.67707,0.8062 -1.35225,1.61287 -2.0257,2.4202 -0.34197,-0.27363 -0.67634,-0.54673 -1.00417,-0.81775 -1.23319,-1.01952 -2.43524,-2.05737 -3.612238,-3.10322 -4.141022,-3.67915 -8.076055,-7.54079 -11.812499,-11.53757 0,0 -6.4e-5,-7e-5 -6.4e-5,-7e-5 -5.219351,-5.58007 -10.068845,-11.45772 -14.446452,-17.64474 -5.034343,-7.10832 -9.43161,-14.64292 -12.86822,-22.61181 -3.64049,-8.42695 -6.123454,-17.3545 -6.929143,-26.49035 -0.856658,-9.87633 0.400513,-19.81123 3.626079,-28.99607 3.993606,-11.26604 10.683763,-21.16787 18.466031,-29.49706 10.569134,-11.08906 23.22623,-19.66661 36.015246,-26.68023 0.003,-0.005 -0.0658,0.0992 -0.0626,0.0943 -0.0593,0.0895 -0.11846,0.17923 -0.17761,0.26918 -0.23051,0.35053 -0.46035,0.70449 -0.68973,1.06187 0,0 -7e-5,1.1e-4 -7e-5,1.1e-4 -0.002,-0.22248 0.001,-0.43255 0.007,-0.63022 0.0216,-0.7453 0.0764,-1.46667 0.15279,-2.16274 0.27413,-2.49829 0.81567,-4.92415 1.55622,-7.24493 2.58931,-8.05312 7.55829,-15.01091 13.68347,-20.30521 10.81308,-9.27854 24.37628,-13.94259 37.28595,-16.32829 24.52815,-3.43071 49.43739,-0.47604 71.75342,3.50235 -0.13768,0.0261 -48.09192,9.11056 -48.22957,9.13666 21.31976,6.50703 41.47033,12.68351 60.48563,18.5378 -0.0407,0.043 -11.47379,12.13359 -11.51449,12.17662 10.48348,1.97114 20.58097,3.91939 30.29705,5.84218 11.68346,9.36674 22.6998,18.09971 33.05585,26.21889 -2.02312,-17.28764 -3.79368,-32.87358 -5.32547,-46.77509 17.67464,-2.18451 32.45025,-3.94102 44.36453,-5.29599 15.49966,18.55593 23.30164,28.37799 23.00245,28.63033 -0.29914,0.25231 -8.65735,-9.0859 -23.73249,-26.78132 -11.4916,1.42111 -25.4587,3.07367 -41.79075,4.92258 1.34187,13.93709 2.78896,29.52216 4.33041,46.76623 -11.11071,-7.35447 -23.05644,-15.17299 -35.86299,-23.45911 -9.88157,-2.94117 -20.15747,-6.04942 -30.83303,-9.32976 -0.0394,0.0427 11.29854,-12.23748 11.25913,-12.1948 -18.67129,-6.07606 -38.39088,-12.52117 -59.18719,-19.34673 -0.13182,0.0245 48.80147,-9.04579 48.66963,-9.02133 -22.01932,-1.8874 -46.20162,-2.49444 -69.41824,3.31264 -12.18341,2.46953 -24.62666,6.71424 -33.84279,14.9406 -5.18508,4.59054 -9.38341,10.48385 -11.39691,17.0687 -0.59173,1.91618 -1.01883,3.86403 -1.21412,5.80842 -0.0545,0.54308 -0.0923,1.06671 -0.10212,1.56907 -0.003,0.13342 -0.004,0.25469 -0.002,0.36365 6e-5,-1.1e-4 0,2e-5 0,2e-5 -0.22848,0.44313 -0.4569,0.88284 -0.68506,1.31911 -0.004,0.008 -0.17127,0.32697 -0.17556,0.33517 -0.0364,0.0694 -0.0252,0.0481 -0.0617,0.11754 -12.90413,7.93687 -25.551868,17.25311 -35.941434,28.81172 -7.146329,7.80247 -13.232431,16.83974 -16.662966,26.85515 -2.809037,8.11348 -3.871328,16.94025 -3.068297,25.67139 0.733852,8.12458 3.049533,16.19813 6.418042,23.94736 3.195755,7.33806 7.346008,14.34866 12.127463,21.05114 4.163127,5.82977 8.798473,11.39072 13.80454,16.69828 0,0 6.2e-5,6e-5 6.2e-5,6e-5 3.588919,3.80298 7.35381,7.46574 11.30099,10.94079 1.12231,0.98793 2.25208,1.95523 3.39514,2.8914 0.30397,0.24895 0.60468,0.49248 0.9031,0.72908 -0.50821,0.93909 -1.01776,1.87705 -1.52855,2.81374 -0.001,0.003 -0.38935,0.7133 -0.39079,0.71595 -4.7e-4,8.1e-4 -0.13912,0.23991 -0.13958,0.24072 C 87.700966,602.03068 67.484482,590.54995 49.749001,575.7544 38.506847,565.1362 28.163123,552.57043 21.59354,537.68862 c -2.532704,-5.77444 -4.430151,-11.90332 -5.476386,-18.25021 -0.938705,-5.72252 -1.16157,-11.58195 -0.635988,-17.40606 1.017987,-10.97637 4.622647,-21.55707 9.908078,-31.1439 5.113671,-9.29142 11.629295,-17.70657 18.905501,-25.34356 6.607396,-6.92974 13.827197,-13.26924 21.455363,-19.10376 8.157737,-3.95012 16.357501,-7.90859 24.601886,-11.87747 0,0 8.9e-5,-4e-5 8.9e-5,-4e-5 -12.124849,-4.25737 -23.940081,-9.99562 -34.167628,-17.93786 -7.941917,-7.17973 -14.827049,-15.80232 -19.689792,-25.66597 0,0 -5e-5,-1.1e-4 -5e-5,-1.1e-4 -4.144268,-8.45781 -6.687602,-17.67831 -7.571758,-27.08432 -0.815822,-8.75123 -0.267421,-17.55973 1.314429,-26.1378 2.76133,-14.84912 8.338583,-29.03366 15.58238,-42.23589 0.107967,-0.11285 15.076382,-15.73997 15.184349,-15.85282 3.972029,21.30231 9.52897,42.68595 18.712059,62.70834 4.666638,11.93202 10.574809,23.42504 18.76537,32.89386 4.542968,5.29649 9.684798,9.99547 15.555858,13.06098 0.0226,0.0261 3.84068,4.44091 3.86325,4.46698 7.22721,-32.42403 18.00351,-64.55233 33.57041,-94.56493 8.29554,-15.20418 17.80949,-29.86801 28.5483,-43.67955 6.93224,-8.91576 14.33657,-17.42707 22.20223,-25.46691 17.60819,-17.98951 37.45827,-33.52301 58.7992,-46.21652 19.35962,-11.51203 39.89122,-20.69487 60.94644,-27.6653 18.79713,-6.2233 38.01438,-10.71127 57.30159,-13.64427 16.03337,-2.4293 32.12915,-3.80534 48.15018,-4.16506 -0.85713,-0.12481 46.68781,6.76965 45.83068,6.64484 -20.46174,11.95068 -39.04166,27.10841 -54.84384,44.67847 -13.26936,13.22294 -24.69403,28.07753 -34.10784,43.91367 -6.75369,11.36717 -12.49943,23.20352 -17.03057,35.38904 -1.30638,3.51405 -2.50703,7.03396 -3.55015,10.5728 0,0 -2e-5,1e-4 -2e-5,1e-4 -0.27936,0.94773 -0.54486,1.88538 -0.7884,2.81523 -0.063,0.24067 -0.12327,0.47504 -0.17962,0.70343 -0.9346,-0.53286 -1.86851,-1.06746 -2.8016,-1.60378 0.003,0.001 -0.71318,-0.41036 -0.71057,-0.40886 -0.0816,-0.047 -0.16325,-0.094 -0.24487,-0.14109 17.82614,-15.58901 36.88742,-29.08408 56.98563,-39.94174 18.79722,-8.90716 38.28876,-15.71128 58.06938,-20.21616 33.99671,-7.73497 68.58607,-8.49442 101.28682,-3.46064 24.7584,3.82367 48.47563,10.80336 70.46795,20.39574 8.25261,5.78666 16.43467,11.49544 24.54881,17.12748 -2.59305,0.48908 -5.54229,1.49213 -8.62476,2.62739 -3.28271,-0.0795 -6.65013,0.24647 -10.04958,0.733 -8.93465,1.28655 -17.77735,3.75943 -26.44502,6.48379 -10.76558,3.39376 -21.32135,7.35489 -31.59241,11.47845 -11.33333,4.55123 -22.44651,9.38145 -33.25695,14.28493 -20.17055,9.14893 -39.66394,18.71843 -58.1903,28.22497 -8.93612,3.41114 -17.7208,6.80181 -26.35696,10.17289 43.81205,-9.28945 85.12423,-8.20433 121.07541,1.34292 11.5639,3.30447 22.43641,7.38537 32.55408,12.37034 2.88366,1.42081 5.70065,2.91425 8.43812,4.53046 0.72663,0.42901 1.45221,0.8699 2.17368,1.33003 0.18568,0.11843 0.37409,0.24016 0.56471,0.36614 -0.17901,0.60349 -0.35697,1.20738 -0.53396,1.81185 -8.8e-4,0.003 -0.13381,0.45768 -0.13469,0.46068 -0.009,0.0321 -0.0373,0.12796 -0.0467,0.1601 -7.1725,-0.4113 -14.71002,1.13877 -21.7958,3.00516 -9.18281,1.60055 -18.09495,4.28683 -26.33114,7.12677 -21.94092,7.57125 -42.64236,17.65536 -58.33393,25.65899 -20.59682,10.50814 -38.4346,20.74697 -49.42382,27.13522 0,0 -1e-5,2e-5 -1e-5,2e-5 -13.7237,8.23695 -20.98645,12.41766 -21.15485,12.1487 z"
         style="fill:#000000;stroke:none;stroke-width:1px;stroke-linecap:butt;stroke-linejoin:miter;stroke-opacity:1" />
      <path
         sodipodi:nodetypes="cc"
         inkscape:original-d="m 360.72881,451.98542 c 31.87711,-19.04289 63.77122,-38.05857 102.15698,-46.68762"
         inkscape:path-effect="#path-effect139"
         inkscape:connector-curvature="0"
         id="path137"
         d="m 360.72881,451.98542 c -0.29772,-0.49838 4.74028,-4.2099 13.24885,-9.66873 8.25399,-5.2955 20.75281,-12.84601 34.42084,-19.55534 0.19642,-0.0964 0.39324,-0.19277 0.59044,-0.28899 14.48171,-7.06574 27.15183,-11.60052 37.482,-14.37836 9.94975,-2.67555 16.29293,-3.33859 16.41486,-2.7962 0.14392,0.64021 -5.93764,2.37686 -15.49202,5.7644 -10.20045,3.6166 -21.94548,8.28316 -36.47647,15.36475 -8.8e-4,4.3e-4 -0.58182,0.28411 -0.5827,0.28454 -12.91276,6.31931 -26.72969,13.95693 -34.78961,18.27344 -8.8924,4.76235 -14.4958,7.53681 -14.81619,7.00049 z"
         style="fill:#000000;stroke:none;stroke-width:1px;stroke-linecap:butt;stroke-linejoin:miter;stroke-opacity:1" />
      <path
         sodipodi:nodetypes="cccccccccccc"
         inkscape:original-d="m 465.50418,403.8316 c 0,0 142.28288,-28.61051 218.10569,2.45452 0,0 -22.11771,170.88055 -9.917,182.29007 l -10.32891,15.40814 c 0,0 98.89715,82.26841 90.41187,103.48162 l 2.82843,175.36248 H 308.29856 L 308,851.5 c 0,0 16.53492,-61.76494 56.5,-93 l 16.1905,-57.95886 c 0,0 -78.2175,-119.51429 -126.21641,-151.75416 0,0 85.81308,-113.31714 208.4117,-143.48918"
         inkscape:path-effect="#path-effect147"
         inkscape:connector-curvature="0"
         id="path145"
         d="m 465.51107,403.83022 c -0.003,-0.0127 0.002,-0.0267 0.0123,-0.042 0.015,-0.016 0.0386,-0.0336 0.0708,-0.0529 0,0 0,0 0,0 0.0641,-0.0385 0.16216,-0.0835 0.29407,-0.13502 0,0 0,0 0,0 0.26197,-0.10223 0.65535,-0.22907 1.18142,-0.37968 l 0,0 c 1.03703,-0.29689 2.56484,-0.67966 4.60214,-1.14105 l 0,0 c 3.9172,-0.88714 9.61351,-2.04386 17.0945,-3.35466 l 0,0 c 13.1398,-2.30242 33.13559,-5.32873 57.22394,-7.36656 l 0,0 c 19.82065,-1.67847 45.04642,-2.96639 71.75438,-1.31068 l 0,0 c 11.20352,0.69438 23.15944,1.94818 35.31141,4.246 l 0,0 c 10.64807,2.46048 21.82025,5.81056 32.77882,10.68726 l -1e-5,1e-5 c -0.7002,9.27382 -1.40248,18.80431 -2.10723,28.59999 l 0,0 c -2.09038,18.94617 -4.15823,39.16324 -5.93915,59.92129 0,10e-6 0,3e-5 0,5e-5 -0.91198,10.62978 -1.76405,21.57907 -2.44792,32.648 l 0,0 c -0.59036,9.56297 -1.08246,19.37743 -1.24108,29.21612 l 0,0 c -0.11099,7.24839 -0.14257,14.57771 0.58992,21.70517 0.24792,2.32439 0.52351,4.5258 1.0814,6.50164 0.19888,0.68414 0.3782,1.26072 0.59967,1.68868 0.30576,1.19841 0.4326,2.21909 0.45299,2.95538 -0.0144,0.0213 -10.35329,15.30221 -10.36769,15.3235 0.005,0.002 -0.007,-0.16301 -0.007,-0.16531 -2.5e-4,-0.006 -0.0201,-0.47607 -0.0203,-0.48194 -5.6e-4,-0.0132 -0.0806,-1.88222 -0.0812,-1.89546 0.28075,0.23315 0.56026,0.46621 0.83883,0.69897 1.05537,0.88181 2.10693,1.7675 3.1572,2.65658 1e-5,1e-5 3e-5,3e-5 4e-5,4e-5 l 0,0 c 3.73077,3.15819 7.45157,6.36448 11.17396,9.61933 11.12632,9.72807 22.34482,19.93739 33.33364,30.65734 l 0,0 c 5.84828,5.70482 11.68056,11.60662 17.35263,17.74683 5.0319,5.4437 10.02038,11.14612 14.64982,17.23959 l 0,0 c 3.53356,4.613 7.05442,9.66635 9.66388,15.46197 l 0,0 c 0.94745,2.06994 1.7695,4.4247 2.18844,7.06607 0.43255,1.75122 0.37417,3.87956 -0.48891,6.13941 l 0,0 c 0.34526,56.61337 0.611,115.27963 0.83739,176.95507 1.81347,-0.001 -187.56556,0.0764 -185.75209,0.0752 -4.16388,5.9e-4 -271.56275,-0.0671 -267.39887,-0.0677 0.0281,0.37307 -2.5849,-34.71839 -2.55685,-34.34532 0.001,-0.009 0.008,-0.0471 0.009,-0.0562 0,0 5e-5,-3.1e-4 5e-5,-3.1e-4 0.003,-0.0154 0.0236,-0.14474 0.0261,-0.16016 -0.33975,2.08191 0.44183,-2.70752 0.10208,-0.6256 0.0531,-0.19111 0.10613,-0.37831 0.15868,-0.56171 0.20262,-0.70713 0.41065,-1.40499 0.62092,-2.09414 0.7831,-2.56654 1.62094,-5.09958 2.49294,-7.60075 2.99954,-8.60613 6.4479,-16.98403 10.29685,-25.09486 5.18305,-10.93231 11.12197,-21.39824 18.01578,-31.14665 7.31572,-10.34428 15.84662,-19.78501 25.88715,-27.43328 24.28272,-84.21263 -8.42828,29.22907 15.85444,-54.98355 -0.004,-0.004 0.003,0.09 0.003,0.0921 1.9e-4,0.005 0.01,0.26405 0.01,0.26922 4.7e-4,0.0129 0.0371,1.04671 0.0376,1.05964 -0.21771,-0.33314 -0.43657,-0.66679 -0.65619,-1.00094 -0.84315,-1.28279 -1.69111,-2.5628 -2.54073,-3.83941 -3.13192,-4.70591 -6.28616,-9.36446 -9.44028,-13.96678 -10.61005,-15.48117 -21.20557,-30.31594 -31.87263,-44.58796 0,0 -4e-5,-5e-5 -4e-5,-5e-5 -13.56813,-18.15036 -26.80131,-34.88945 -40.70497,-50.5759 -6.72801,-7.58971 -13.44097,-14.74098 -20.4405,-21.41474 -6.17358,-6.71761 -12.32477,-12.89139 -18.94293,-18.15474 21.10337,-22.85405 40.5578,-43.74982 58.44763,-62.78836 23.80412,-20.47168 46.31092,-35.92123 66.79628,-47.66925 25.71422,-14.74041 47.25606,-22.98453 62.19275,-27.66272 14.92712,-4.67519 23.12612,-5.85018 23.18611,-5.60642 0.0931,0.37832 -7.89856,2.43057 -22.4592,7.7508 -14.61378,5.33965 -35.60334,14.12657 -60.71541,29.26763 -19.96561,12.03362 -41.83242,27.62827 -64.98505,48.13881 -17.71287,17.90713 -37.0311,37.2466 -58.04098,58.09437 6.95256,3.85177 13.28515,8.45896 19.46094,13.39493 7.26241,6.78499 14.19572,14.0195 21.08747,21.65013 14.24011,15.7648 27.77038,32.56836 41.56081,50.71979 0,0 3e-5,4e-5 3e-5,4e-5 10.85253,14.28209 21.6263,29.13308 32.40258,44.62973 3.20412,4.60753 6.41126,9.27704 9.59937,14.0005 0.86481,1.2813 1.73022,2.56953 2.59311,3.86419 0.22477,0.33723 0.44998,0.67584 0.6753,1.01587 0.0256,0.1069 0.35152,1.46935 0.37707,1.57622 -0.76473,-3.1958 0.86055,3.59619 0.0958,0.40039 -0.37791,-1.71065 0.40689,1.84181 0.029,0.13116 2.41364,-8.88013 -18.93261,69.82585 -16.52275,60.93994 -9.65721,7.7467 -18.03897,17.36 -25.47844,27.9679 -6.5004,9.2712 -12.1234,19.3018 -17.07818,29.84823 -3.67461,7.82912 -6.96269,15.90958 -9.81733,24.20199 -0.8295,2.41032 -1.61988,4.82903 -2.35046,7.25725 -0.19622,0.65218 -0.38661,1.29924 -0.568,1.94164 -0.047,0.16664 -0.0927,0.32982 -0.1364,0.48962 0.009,-0.11777 0.0185,-0.23655 0.0283,-0.35633 -2.1e-4,0.002 0.008,-0.0941 0.008,-0.0916 0,0 2e-5,-1.8e-4 2e-5,-1.8e-4 -0.002,0.0233 0.005,-0.0555 0.003,-0.0322 -0.63854,9.37718 -1.29199,18.81099 -1.95973,28.31155 -3.96401,0.003 257.74335,-0.065 261.70736,-0.0677 1.80317,2.6e-4 179.9499,0.075 181.75308,0.0752 -1.74483,-60.53816 -3.35411,-118.12635 -4.81947,-173.76989 0.30873,-0.66973 0.29927,-1.81346 0.27721,-3.17517 -0.17676,-1.43807 -0.76048,-3.00362 -1.47358,-4.69 -2.0487,-4.74166 -5.19418,-9.21537 -8.52819,-13.69571 l 0,0 c -4.34055,-5.78368 -9.11614,-11.29169 -14.00566,-16.6473 -5.50267,-6.02334 -11.19612,-11.84798 -16.93344,-17.51143 l 0,0 c -10.78209,-10.64254 -21.82438,-20.81619 -32.79906,-30.54186 -3.67057,-3.25258 -7.33562,-6.45427 -11.0071,-9.60595 0,0 -5e-5,-4e-5 -5e-5,-4e-5 -1.03363,-0.88729 -2.06531,-1.76855 -3.09765,-2.64341 -0.2725,-0.23094 -0.54416,-0.46069 -0.8153,-0.68913 -0.009,-0.0404 -0.49786,-2.21087 -0.50695,-2.2512 -0.006,-0.0275 -0.12258,-0.54487 -0.12876,-0.57233 -0.0131,-0.0641 -0.0262,-0.12819 -0.0393,-0.19228 l 0,0 c 3.45319,-5.21209 6.88346,-10.3767 10.28532,-15.49679 -0.88629,-0.11173 -1.406,-0.17911 -1.63682,-0.0978 -0.51556,-1.10666 -0.86399,-2.15674 -1.10871,-3.11196 -0.71347,-2.72257 -1.05184,-5.37235 -1.27371,-7.85835 -0.71614,-7.70528 -0.63686,-15.34327 -0.45227,-22.66327 l 0,0 c 0.24426,-10.01854 0.82511,-19.94525 1.50551,-29.5666 l 0,0 c 0.78764,-11.14616 1.74584,-22.14528 2.76513,-32.80866 0,-10e-6 0,-3e-5 0,-5e-5 1.99165,-20.83592 4.27947,-41.07735 6.5969,-60.05224 l 0,0 c 1.5265,-8.57147 3.00154,-16.96425 4.42657,-25.18491 l 0,0 c -9.65206,-3.56776 -19.74111,-5.81056 -29.49584,-7.36029 l 0,0 c -11.79887,-2.40961 -23.5066,-3.81568 -34.53096,-4.68345 l 0,0 c -26.25786,-2.06644 -51.35934,-1.27934 -71.07036,-0.0892 l 0,0 c -23.85934,1.44253 -44.11432,3.84113 -57.18281,5.50541 l 0,0 c -7.49684,0.95478 -13.26647,1.7583 -17.22526,2.27903 l 0,0 c -2.05221,0.26995 -3.63988,0.46705 -4.69717,0.57026 l 0,0 c -0.54245,0.0529 -0.95603,0.0824 -1.23562,0.0865 0,0 0,0 0,0 -0.14132,0.002 -0.24909,-0.002 -0.32287,-0.0135 0,0 0,0 0,0 -0.0371,-0.006 -0.0656,-0.0128 -0.0856,-0.0218 -0.0157,-0.01 -0.0248,-0.0214 -0.0274,-0.0341 z"
         style="fill:#000000;stroke:none;stroke-width:1px;stroke-linecap:butt;stroke-linejoin:miter;stroke-opacity:1" />
      <path
         inkscape:original-d="m 384.07234,697.81907 20.9599,-6.53123 c 0,0 -91.49433,-129.41379 -111.79168,-147.12751 m 0,0 c 0,0 160.72199,-186.00514 358.71189,-96.90968"
         inkscape:path-effect="#path-effect151"
         inkscape:connector-curvature="0"
         id="path149"
         d="m 384.07234,697.81907 c -0.37763,-1.2119 7.16092,-4.35481 19.24502,-7.11193 l -0.004,-0.006 c -0.0218,0.0448 -0.0436,0.0896 -0.0654,0.13444 2.6e-4,-4.7e-4 -0.20501,0.37694 -0.20475,0.37647 0,0 -10e-6,2e-5 -10e-6,2e-5 -0.2682,0.49349 -0.53867,0.99257 -0.81139,1.49722 0,0 -2e-5,2e-5 -2e-5,2e-5 0.0136,0.0169 -0.84803,-1.05722 -0.83447,-1.04034 -1.01398,-1.26657 -2.07136,-2.59633 -3.16248,-3.97761 -3.40091,-4.30531 -7.18158,-9.17651 -11.23302,-14.46901 0,0 0,0 0,0 -9.84781,-12.86443 -21.39108,-28.34823 -33.66504,-45.05424 -4.7e-4,-6.5e-4 -0.62442,-0.8501 -0.6249,-0.85074 -10.953,-14.91438 -29.36255,-40.31186 -36.55801,-50.26548 -5.6604,-7.82894 -10.49894,-14.52559 -14.29622,-19.77597 -1.69463,-2.34269 -4.31111,-5.97219 -5.29569,-7.35611 -10e-6,0 -10e-6,0 -10e-6,0 -2.40698,-3.37271 -3.69916,-5.32593 -3.32099,-5.75925 0.42132,-0.48278 2.56077,0.61539 5.87862,3.38242 0,0 0,0 0,0 1.94807,1.62366 4.14627,3.67171 6.76411,6.31423 4.79164,4.83618 10.08105,10.7206 16.49794,18.32609 11.52276,13.65599 24.14866,29.8611 38.38707,49.21144 -1.8e-4,-2.4e-4 0.62705,0.85281 0.62687,0.85257 12.30401,16.74699 23.39295,32.61275 32.42478,46.08763 0,0 10e-6,0 10e-6,0 3.72615,5.55913 7.0915,10.69637 10.05678,15.34337 0.95006,1.48889 1.85599,2.9226 2.71946,4.30444 0.23922,0.38282 0.47485,0.76111 0.70731,1.1357 0,1e-5 0,2e-5 0,3e-5 -7.4e-4,0.004 -0.41563,2.05177 -0.41637,2.05537 0,0 0,3e-5 0,3e-5 -2.7e-4,0.001 -0.1042,0.51692 -0.10447,0.51826 -0.0133,0.0568 -0.0267,0.11364 -0.0399,0.17039 l 0,0 c -14.16871,5.44212 -22.2959,7.15856 -22.67038,5.95677 z M 293.24056,544.16033 c -0.0137,-0.012 -0.0249,-0.0268 -0.0335,-0.0446 -0.008,-0.0175 -0.0145,-0.0377 -0.018,-0.0608 -0.007,-0.0461 -0.004,-0.10331 0.008,-0.17152 0,0 0,0 0,0 l 0,0 c 0.0254,-0.13636 0.0902,-0.31607 0.19422,-0.5385 0,0 0,0 0,0 l 0,0 c 0.20779,-0.4442 0.56939,-1.05252 1.08773,-1.82099 l 0,0 c 1.03449,-1.53365 2.6532,-3.64929 4.89882,-6.31998 l 0,0 c 4.43321,-5.27235 11.06411,-12.43249 20.09889,-20.96679 l 0,0 c 17.24059,-16.28896 43.01739,-37.41638 76.62591,-56.10021 l 0,0 c 0,0 1e-5,-1e-5 1e-5,-1e-5 18.05868,-10.04785 38.34546,-19.27385 60.42764,-26.30094 18.81387,-5.98703 37.32018,-9.86471 55.30927,-11.80089 25.3214,-2.71212 48.48843,-1.41996 68.4312,1.91907 46.7559,7.83904 71.83762,24.94908 71.68128,25.29649 -0.6524,1.44978 -27.84661,-11.83748 -72.82554,-17.53421 -19.45164,-2.46815 -41.81906,-3.11401 -66.19597,-0.14224 -17.325,2.10262 -35.14708,5.97941 -53.36606,11.78783 -21.37049,6.81317 -41.16341,15.60711 -58.94094,25.07605 0,0 -1e-5,10e-6 -1e-5,10e-6 l 0,0 c -33.09137,17.64181 -59.13589,37.3951 -77.18498,52.28347 l 0,0 c -9.57796,7.90242 -16.51509,14.11494 -21.73702,18.74439 l 0,10e-6 c -2.5463,2.25742 -4.60156,4.06449 -5.98612,5.18825 l 0,0 c -0.71081,0.57693 -1.27721,1.00124 -1.68828,1.25541 l 0,0 c 0,0 0,0 0,0 -0.20701,0.128 -0.3765,0.21401 -0.50739,0.2564 l 0,0 c 0,0 0,0 0,0 -0.0657,0.0213 -0.12182,0.0317 -0.16827,0.0309 -0.0233,-3.8e-4 -0.0441,-0.004 -0.0626,-0.01 -0.0188,-0.006 -0.035,-0.0151 -0.0487,-0.027 z"
         style="fill:#000000;stroke:none;stroke-width:1px;stroke-linecap:butt;stroke-linejoin:miter;stroke-opacity:1" />
      <path
         sodipodi:nodetypes="ccc"
         inkscape:original-d="m 649.62403,446.65014 -4.74264,170.30614 c 0,0 121.62236,123.03658 104.6518,110.30866"
         inkscape:path-effect="#path-effect155"
         inkscape:connector-curvature="0"
         id="path153"
         d="m 649.62403,446.65014 c 2.92791,0.0815 2.64574,72.78741 -0.2242,161.42124 -8.5e-4,0.0262 -0.23666,7.1807 -0.23751,7.20692 21.53283,21.63258 40.86457,41.39176 57.38592,58.72057 15.81705,17.00167 26.88018,29.3473 35.50097,39.82461 0,0 10e-6,0 10e-6,0 2.13264,2.59177 3.89372,4.81013 5.4199,6.84243 1.43764,1.91441 2.47437,3.38354 3.33248,4.80678 0,0 0,0 0,0 l 0,0 c 0.32645,0.54034 0.59583,1.01592 0.8218,1.5186 l 0,0 c 0,0 1e-5,0 1e-5,0 0.0754,0.16438 0.15298,0.34873 0.21953,0.56009 l 0,0 c 0,0 -10e-6,0 -10e-6,0 -0.091,0.14767 -0.19688,0.5253 -0.35923,1.0317 l 0,0 c -0.0531,0.0282 -0.11153,0.0547 -0.17388,0.0709 -0.0791,0.0206 -0.15901,0.0276 -0.23122,0.0316 -0.29233,0.0163 -0.51288,-0.008 -0.66252,-0.0269 0,0 0,0 0,0 -0.8359,-0.68397 -0.98,-1.26419 -0.8829,-1.39366 0.17977,-0.23968 0.63073,0.0271 1.50276,0.21306 0,0 0,0 0,0 0.0296,0.0765 0.0202,0.16402 -0.0489,0.20953 -0.0167,0.011 -0.0357,0.0191 -0.064,0.0133 -0.0224,-0.005 -0.0537,-0.0196 -0.0977,-0.0365 l 0,0 c -0.13121,0.35293 -0.3105,0.55987 -0.47414,0.55571 0,0 0,0 0,0 l 0,0 c -0.0561,-0.0631 -0.13878,-0.14064 -0.24178,-0.25434 0,0 0,0 0,0 l 0,0 c -0.33734,-0.3588 -0.62211,-0.62114 -1.09242,-1.07826 l 0,0 c 0,0 0,0 0,0 -1.08619,-1.04747 -2.46641,-2.34267 -4.129,-3.92726 -1.50606,-1.43325 -4.15497,-3.96485 -6.25046,-5.98036 0,0 -10e-6,-10e-6 -10e-6,-10e-6 -6.19381,-5.95748 -25.0262,-24.33138 -38.02699,-37.19461 -17.57868,-17.49039 -37.87304,-38.19257 -60.01015,-61.15088 -6e-4,0.0267 0.16871,-7.38586 0.16812,-7.35919 2.1385,-91.34377 5.93107,-164.70638 8.85545,-164.62494 z"
         style="fill:#000000;stroke:none;stroke-width:1px;stroke-linecap:butt;stroke-linejoin:miter;stroke-opacity:1" />
      <path
         sodipodi:nodetypes="czzcc"
         inkscape:original-d="m 114.76381,448.83273 c 0,0 22.79929,110.83394 43.9423,116.4782 21.14301,5.64426 10.36392,56.93546 3.50778,68.28376 -6.85614,11.3483 -2.52191,21.33593 45.3821,19.62062 0,0 8.42962,22.7239 33.35289,17.98117"
         inkscape:path-effect="#path-effect159"
         inkscape:connector-curvature="0"
         id="path157"
         d="m 114.76381,448.83274 c 0.8303,-0.1857 3.02228,5.94302 6.1902,16.89319 2.54033,8.42073 6.96913,23.69188 11.62506,38.13513 2.08264,6.46098 4.44684,13.52071 7.09355,20.66917 0,0 0,1e-5 0,1e-5 2.19912,5.9345 4.66038,12.18192 7.52745,18.25001 2.17591,4.56547 4.50664,9.14853 7.45409,13.01163 1.06755,1.3842 2.11576,2.62906 3.23893,3.53411 0.88138,0.65212 1.58111,1.16992 2.08511,1.21976 3.48572,0.9404 6.60134,2.88407 8.97266,5.58709 2.39716,2.80854 3.97354,5.96839 4.93988,9.10687 0.99947,3.19381 1.61727,6.43112 1.95283,9.67233 0.45109,4.35717 0.38412,8.64549 0.0918,12.70432 -0.49588,7.80283 -1.80693,15.3551 -3.67785,22.51207 -0.80402,3.09033 -1.72974,6.14359 -2.85085,9.14589 0,0 -1e-5,10e-6 -1e-5,10e-6 -0.789,2.16532 -1.75432,4.46679 -3.1459,6.76528 -1.19219,2.25076 -2.25315,4.0363 -1.97787,5.29894 0.008,0.44464 0.16493,0.93848 0.41105,1.31974 0.305,0.5832 1.06232,1.15937 1.9757,1.784 3.45274,2.29576 8.40724,3.07113 13.17906,3.8552 10.30152,1.89251 20.86753,2.35718 29.28207,2.58247 0.0784,0.0585 0.0396,0.0296 0.11797,0.088 -0.0216,-0.0161 0.35273,0.26332 0.3311,0.24718 0.4262,0.31849 0.85283,0.63872 1.2797,0.9609 l 0,0 c 0.0699,0.19492 0.14902,0.39756 0.23451,0.60759 0.31499,0.77377 0.67654,1.53699 1.06478,2.28477 1.37251,2.63264 3.01124,4.92296 4.80082,6.84829 2.83395,3.04634 5.99678,5.10238 8.99091,6.36231 8.55328,3.66975 14.84853,2.13013 14.99836,2.91745 -0.0405,-0.21273 -5.2052,4.33376 -16.43571,1.30606 -3.72951,-1.02878 -7.8326,-3.05147 -11.59881,-6.42942 -2.35716,-2.11061 -4.56763,-4.69128 -6.45345,-7.73244 -0.53588,-0.86135 -1.05335,-1.77484 -1.53309,-2.74169 -0.13004,-0.262 -0.26076,-0.53714 -0.38963,-0.82607 l 0,0 c 0.37465,0.19511 0.7499,0.38789 1.12602,0.57815 0.0975,0.0493 0.19496,0.0984 0.29257,0.14736 0.0123,0.006 0.0922,0.0461 0.10446,0.0523 -7.80965,0.80509 -17.57107,1.67578 -27.24715,1.08999 -5.02098,-0.43015 -11.04763,-1.32408 -16.74395,-4.47526 -1.71616,-0.94131 -3.44583,-2.35152 -4.90571,-4.33951 -1.18156,-1.69892 -1.90965,-3.67801 -2.09549,-5.78608 -0.15711,-4.40471 1.26133,-8.12703 3.0981,-10.89006 0.85094,-1.41336 1.50053,-3.16542 2.22395,-5.15623 0,0 0,-1e-5 0,-1e-5 0.93073,-2.63618 1.70912,-5.38962 2.41445,-8.25894 1.62793,-6.65815 2.76776,-13.61598 3.17858,-20.72336 0.18306,-3.75873 0.24914,-7.52602 -0.0865,-11.11438 -0.24997,-2.67242 -0.71983,-5.2183 -1.51214,-7.60539 -0.76255,-2.24646 -1.65523,-4.23881 -2.91944,-5.62419 -1.07731,-1.24725 -2.53617,-2.20172 -4.03191,-2.59116 -2.47181,-0.74476 -4.42237,-1.94185 -5.86923,-3.25575 -1.91766,-1.6627 -3.45335,-3.47175 -4.72139,-5.23811 -3.51546,-4.85508 -6.07011,-10.03998 -8.19811,-14.89253 -2.89013,-6.53025 -5.25657,-13.08789 -7.28937,-19.24978 0,0 0,-10e-6 0,-10e-6 -2.4593,-7.44692 -4.5434,-14.69895 -6.31495,-21.36541 -4.18681,-15.75475 -7.02906,-29.69998 -8.67531,-39.29521 -1.80423,-11.2815 -2.4322,-17.76086 -1.60185,-17.94657 z"
         style="fill:#000000;stroke:none;stroke-width:1px;stroke-linecap:butt;stroke-linejoin:miter;stroke-opacity:1" />
      <path
         sodipodi:nodetypes="ccccc"
         inkscape:original-d="m 236.44098,672.18566 c 0,0 11.15661,18.69328 25.24364,10.01622 0,0 13.94217,43.16917 30.98516,36.33794 0,0 44.34822,-24.67368 51.90881,-39.08698 l 39.9962,20.47807"
         inkscape:path-effect="#path-effect163"
         inkscape:connector-curvature="0"
         id="path161"
         d="m 236.441,672.18569 c 0.62629,-0.55657 3.87005,1.90418 8.93873,6.58343 1.93382,1.17607 4.45027,2.41331 6.95208,2.52072 3.03834,0.48796 6.56942,0.0137 10.1069,-1.26947 1.6529,2.34061 3.44784,4.80832 5.39086,7.41488 1.91482,4.26601 4.16752,8.8643 6.85258,13.30945 2.57401,4.17185 5.41764,8.51057 9.03251,11.31424 1.3914,1.04901 2.73756,1.92278 3.96932,2.15231 0.86618,0.3146 1.92694,0.27863 2.77508,-0.0775 3.81251,-2.37847 7.71832,-4.79487 11.69955,-7.23657 3.71645,-2.27931 7.38182,-4.50902 10.98208,-6.68154 6.28614,-4.10647 11.91582,-7.9775 17.1605,-12.16614 2.4437,-1.95339 4.65842,-3.83694 6.64317,-5.83001 2.67797,-2.02358 4.97804,-3.78966 6.72561,-5.63031 26.11284,12.45323 41.80687,21.57991 40.90483,23.34172 -0.90778,1.773 -17.1337,-5.47157 -39.08759,-17.61442 -0.48041,2.40283 -1.27954,4.33963 -2.07292,6.00106 -2.21354,2.46107 -4.61232,4.71903 -7.14876,6.90597 -5.47204,4.72041 -11.37767,9.03247 -17.80457,13.34776 -3.70884,2.29753 -7.50404,4.63051 -11.36817,6.98729 -4.13946,2.52471 -8.21837,4.99157 -12.21228,7.3873 -3.12615,1.23689 -6.49091,1.46648 -9.66968,0.72351 -3.12542,-0.91009 -5.66846,-2.4808 -7.64065,-4.23363 -4.95233,-4.33373 -8.2339,-9.60519 -10.66779,-14.29341 -2.71313,-5.10541 -4.80747,-10.19724 -6.46279,-14.87087 0.24022,-2.01607 0.40472,-3.97559 0.49094,-5.88806 -2.91224,2.68257 -6.48738,3.52348 -9.65376,2.92415 -4.03571,-1.04146 -7.05463,-3.22333 -9.07526,-5.16485 -4.31488,-5.88161 -6.38778,-9.39958 -5.76052,-9.95702 z"
         style="fill:#000000;stroke:none;stroke-width:1px;stroke-linecap:butt;stroke-linejoin:miter;stroke-opacity:1" />
      <path
         inkscape:original-d="m 380.68971,577.65057 18.03108,-18.34234 c 0,0 -6.4159,-5.26408 -8.11398,-43.10448 0,0 42.14364,-42.29172 57.69944,-42.18738 0,0 37.86525,19.25946 37.86525,19.25946"
         inkscape:path-effect="#path-effect167"
         inkscape:connector-curvature="0"
         id="path165"
         d="m 380.68971,577.65057 c -1.00818,-0.99107 5.07042,-8.61647 15.23975,-18.83268 0,0 0,-1e-5 0,-1e-5 -1.33264,-1.81369 -2.74068,-3.65572 -4.23642,-5.54458 -3.59054,-11.4834 -4.65583,-23.66845 -5.15008,-38.74737 5.38082,-5.31632 11.11644,-10.94037 17.00582,-16.6457 2.28752,-2.21603 4.55303,-4.40054 6.79471,-6.55075 6.61155,-5.54822 13.02961,-10.4782 19.8605,-14.6996 3.01417,-1.86787 6.09491,-3.55559 9.39367,-4.8993 2.81317,-1.00502 6.05771,-1.7753 9.67635,-1.69262 0,-10e-6 0,0 0,0 0.0356,0.0129 0.0635,0.022 0.0914,0.031 0.0872,0.0296 0.17439,0.0592 0.26147,0.0887 0.3375,0.11451 0.67376,0.22869 1.00879,0.34254 2.8e-4,1.5e-4 1.1822,0.65585 1.18247,0.656 1.43713,0.79857 2.83939,1.58253 4.20478,2.35072 4.68089,2.63354 8.92836,5.0817 12.66127,7.29752 11.41573,6.77626 18.01917,11.37964 17.48941,12.46714 0,0 0,1e-5 0,1e-5 0,0 0,0 0,0 -0.002,0.004 -0.002,0.004 -0.002,0.004 3e-5,-6e-5 7e-5,-1.2e-4 -0.002,0.004 0,0 0,0 0,0 0,0 0,0 0,0 -0.56691,1.06861 -8.17626,-1.55708 -20.37581,-6.7923 -3.98922,-1.7119 -8.46926,-3.70282 -13.35437,-5.93485 -1.42496,-0.65107 -2.88438,-1.32266 -4.37614,-2.01381 2.8e-4,1.3e-4 -1.22685,-0.56944 -1.22657,-0.56931 0.12293,0.006 0.24675,0.0121 0.37147,0.0184 0.0322,0.002 0.0644,0.003 0.0967,0.005 0.0138,0.002 0.0276,0.004 0.0414,0.006 -0.008,-0.004 -0.008,-0.004 -0.008,-0.004 -1.101,0.0516 -2.43585,0.88471 -4.2102,1.87102 -2.59415,1.21397 -5.13308,2.79608 -7.86578,4.62596 -6.13519,4.12209 -11.95435,8.8557 -18.33888,14.30292 -2.0578,1.7973 -4.14534,3.60948 -6.26402,5.43893 -5.45041,4.70635 -10.84149,9.29767 -15.98894,13.64794 0.78388,13.33676 1.40474,22.76922 4.21558,32.66453 0.92396,3.32969 1.7951,6.40047 2.62579,9.25242 8e-5,7e-5 7e-5,7e-5 7e-5,7e-5 -12.16236,12.50263 -19.81505,18.84224 -20.8224,17.85199 z"
         style="fill:#000000;stroke:none;stroke-width:1px;stroke-linecap:butt;stroke-linejoin:miter;stroke-opacity:1" />
      <path
         inkscape:original-d="m 486.1736,493.27159 29.74918,-5.49846 13.5233,39.43601 -25.2435,15.59099 -4.50777,32.09909 -48.68391,30.26485"
         inkscape:path-effect="#path-effect171"
         inkscape:connector-curvature="0"
         id="path169"
         d="m 486.1736,493.27159 c -0.28067,-1.51853 11.0971,-4.62235 31.1428,-7.88332 4.31408,11.46592 9.75032,26.37152 15.69399,43.09609 -6.3145,4.27444 -13.09129,8.84165 -19.98895,13.43859 -1.68936,1.12586 -3.36804,2.24158 -5.03665,3.34717 -1.6203,11.33562 -3.24502,22.079 -4.81198,31.8932 -30.05144,18.50392 -51.02576,29.82835 -52.16191,28.00075 -1.13511,-1.82593 17.95098,-15.4101 45.20591,-32.52895 1.2217,-10.04342 2.63457,-20.93026 4.20356,-32.30498 1.67374,-0.95873 3.36236,-1.92273 5.06664,-2.89286 6.95299,-3.95782 13.88213,-7.8552 20.39476,-11.50336 -4.30147,-13.14771 -8.19586,-25.4599 -11.35261,-35.77593 -16.56907,3.50041 -28.07382,4.63796 -28.35556,3.1136 z"
         style="fill:#000000;stroke:none;stroke-width:1px;stroke-linecap:butt;stroke-linejoin:miter;stroke-opacity:1" />
      <path
         inkscape:original-d="M 451.0109,605.16407 431.17672,594.15867 403.22856,612.501 380.6895,577.6505"
         inkscape:path-effect="#path-effect175"
         inkscape:connector-curvature="0"
         id="path173"
         d="m 451.0109,605.16407 c -0.91572,1.65033 -9.28146,-1.57933 -19.70009,-7.39344 -6.56042,4.46944 -14.12768,9.26023 -22.50947,14.35131 -2.13856,1.29895 -4.24535,2.56607 -6.2922,3.78838 0,0 0,-10e-6 0,-10e-6 -14.90943,-20.74967 -24.29315,-36.66011 -21.81964,-38.25982 2.51405,-1.62592 12.62384,12.78287 23.25848,31.44119 0,0 0,0 0,0 1.93249,-1.38931 3.91429,-2.80555 5.92111,-4.22719 7.86415,-5.57098 14.91983,-10.37745 21.17354,-14.31778 13.42055,7.41263 20.8836,12.96773 19.96827,14.61736 z"
         style="fill:#000000;stroke:none;stroke-width:1px;stroke-linecap:butt;stroke-linejoin:miter;stroke-opacity:1" />
      <path
         inkscape:original-d="m 503.99026,511.89739 -28.04977,12.96999 c 0,0 -58.5076,-22.98867 -45.89962,40.20697 l -15.29988,10.376"
         inkscape:path-effect="#path-effect179"
         inkscape:connector-curvature="0"
         id="path177"
         d="m 503.99026,511.89739 c 0.77279,1.67128 -9.95701,8.18648 -27.75211,16.92717 -3.2452,-0.64637 -6.75112,-1.35441 -10.39499,-2.1039 -5.37569,-0.95235 -11.30071,-1.57292 -16.77985,-0.53858 -1.8249,0.33595 -3.61533,0.82027 -5.24518,1.51916 -0.77103,0.33062 -1.49833,0.70589 -2.1739,1.13105 -2.27203,1.3712 -4.15988,3.4086 -5.46936,5.66533 -1.91126,3.18235 -2.77315,7.19591 -3.24429,11.03814 -1.11692,7.50274 -0.70927,15.05135 -0.21155,20.63625 0,0 0,0 0,0 -10.69915,7.29583 -17.18311,10.45052 -17.97805,9.27834 -0.79527,-1.17266 4.37999,-5.92353 12.62173,-11.47366 0,0 0,0 0,0 -1.65266,-5.17971 -3.4514,-11.93286 -3.50742,-19.09853 0.14653,-4.69083 1.10066,-10.00488 3.75132,-15.10237 1.98086,-3.71417 4.95436,-7.03465 8.7821,-9.43759 1.11841,-0.68483 2.27487,-1.2839 3.45975,-1.80058 2.50779,-1.09354 5.07911,-1.79032 7.59284,-2.17127 7.50517,-1.11039 14.65344,-0.13154 20.68165,1.43308 2.53061,1.04228 5.15004,2.12821 7.51987,3.11076 15.88923,-6.84227 27.57755,-10.67782 28.34744,-9.0128 z"
         style="fill:#000000;stroke:none;stroke-width:1px;stroke-linecap:butt;stroke-linejoin:miter;stroke-opacity:1" />
      <path
         inkscape:original-d="m 475.94049,524.86738 c 0,0 -2.19547,54.20334 -43.22146,41.30463"
         inkscape:path-effect="#path-effect183"
         inkscape:connector-curvature="0"
         id="path181"
         d="m 475.94049,524.8674 c 0.0414,0.002 0.082,0.007 0.12285,0.0165 0.0391,0.009 0.0779,0.0207 0.11643,0.036 0.0769,0.0306 0.1523,0.0742 0.22666,0.13064 0,0 0,0 0,0 l 0,0 c 0.14787,0.11283 0.28927,0.27645 0.42474,0.48934 l 0,0 c 0.26718,0.41991 0.50518,1.02821 0.70471,1.81138 l 0,0 c 0.38508,1.51148 0.62074,3.67227 0.58742,6.34788 l 0,0 c -0.0498,4.77498 -0.96724,11.59856 -4.05084,18.74474 -1.27118,2.94813 -2.97727,5.9822 -5.24706,8.83848 -0.18908,0.23794 -0.38106,0.47337 -0.57594,0.70622 -2.61483,3.12858 -5.75687,5.62255 -9.18964,7.35527 -4.34805,2.15126 -8.73255,2.83583 -12.46339,2.70778 0,0 0,0 0,0 -9.83193,-0.38195 -14.2004,-4.85231 -13.87741,-5.87961 0.48301,-1.53626 6.20418,-0.6061 13.3875,-2.02209 0,0 0,0 0,0 2.71535,-0.52578 5.71752,-1.48745 8.38309,-3.16812 2.16227,-1.32503 4.2041,-3.16244 6.09627,-5.41359 0.14278,-0.17019 0.28429,-0.34285 0.4246,-0.51796 1.67672,-2.09259 3.09778,-4.43305 4.3356,-6.75869 2.94223,-5.53723 4.98076,-11.6398 6.43876,-15.69346 l 0,0 c 0.83406,-2.33095 1.55404,-4.25615 2.20952,-5.58805 l 0,0 c 0.33993,-0.69086 0.66837,-1.2303 0.98538,-1.59309 l 0,0 c 0.16109,-0.18435 0.32149,-0.32428 0.4794,-0.41667 l 0,0 c 0,0 0,0 0,0 0.0796,-0.0468 0.1593,-0.0816 0.23843,-0.10389 0.0398,-0.0112 0.0795,-0.0193 0.11916,-0.0242 0.0414,-0.005 0.0824,-0.007 0.12376,-0.005 z"
         style="fill:#000000;stroke:none;stroke-width:1px;stroke-linecap:butt;stroke-linejoin:miter;stroke-opacity:1" />
      <path
         sodipodi:nodetypes="ccccccccccc"
         inkscape:original-d="m 581.76463,596.20233 c 0,0 -32.73675,6.85759 -48.44961,35.01897 0,0 12.32753,12.63931 2.54998,24.64299 0,0 -23.91969,14.8321 -23.91969,30.38845 0,0 7.10563,47.72508 22.6447,50.02549 0,0 27.85451,13.72479 34.42471,-2.594 l 16.57488,29.83096 57.37452,-31.12796 -15.29986,-32.42498 c 0,0 49.41949,-62.74204 -33.14973,-85.60193 l -13.97987,-16.84948"
         inkscape:path-effect="#path-effect187"
         inkscape:connector-curvature="0"
         id="path185"
         d="m 581.76461,596.20234 c 0.005,0.0238 0.002,0.0491 -0.009,0.0765 -0.0111,0.0263 -0.0299,0.0543 -0.0564,0.0841 -0.0524,0.0589 -0.13505,0.12504 -0.2469,0.19842 0,0 0,0 0,0 l 0,0 c -0.21862,0.14364 -0.55416,0.31862 -0.99469,0.52588 l 0,0 c -0.82934,0.3902 -2.1404,0.94363 -3.73885,1.63855 l 0,0 c -2.95657,1.28561 -7.3529,3.24457 -12.40551,6.16941 l 0,0 c -4.51578,2.61647 -9.89314,6.20764 -15.03956,11.00653 l 0,0 c -4.73437,3.99548 -9.5032,9.08315 -13.13594,15.24737 l 3e-5,3e-5 c 1.68993,2.07661 3.4284,4.18584 5.21807,6.33055 l 0,0 c 1.247,2.89594 2.00772,6.22425 1.87936,9.75837 l 0,0 c -0.38799,4.12564 -2.06135,8.07523 -4.70632,11.34144 l -3e-5,1e-5 c -3.86163,3.1433 -7.86015,6.39066 -11.98432,9.7328 l 0,0 c -2.75544,2.71338 -5.35368,5.64943 -7.27179,8.88688 l 0,0 c -1.73173,2.86439 -3.11791,5.90257 -2.97878,8.66409 l 0,10e-6 c -0.003,-0.0172 1.39579,7.0758 1.39239,7.05863 l 0,0 c 1.13815,5.34831 2.49285,10.77926 4.18126,16.14708 l 0,0 c 1.78282,5.59883 3.78628,11.19105 6.7238,15.99469 l 0,0 c 1.19203,1.91423 2.3958,3.64314 3.79531,4.84522 1.30269,0.93223 2.5214,1.69961 3.50278,1.74709 l 3e-5,1e-5 c 1.65355,0.66475 3.31438,1.33268 4.98223,2.00369 l 0,0 c 3.07624,1.14249 6.20316,2.07588 9.34241,2.60821 3.41751,0.51512 6.68454,0.80099 9.29661,-0.0556 1.14903,-0.35535 2.19194,-0.84678 2.91741,-1.50902 2.29981,-0.74999 4.45555,-1.8866 6.45376,-3.1573 9.09127,14.66574 3.2016,5.16386 12.29287,19.8296 -0.25548,-0.4123 5.66293,9.14321 5.40744,8.73091 18.39916,-10.01697 36.12285,-19.6299 53.0931,-28.79617 -5.5082,-11.00414 -10.76407,-21.56691 -15.79569,-31.76288 0.008,-0.0543 0.0163,-0.10869 0.0245,-0.16304 -0.002,0.0165 0.0731,-0.48621 0.0707,-0.46971 0.0923,-0.61212 0.18548,-1.22565 0.27979,-1.84052 0,0 2e-5,-9e-5 2e-5,-9e-5 0.11601,-0.14846 0.23446,-0.30389 0.35607,-0.46546 0.45722,-0.60751 0.90584,-1.23502 1.34999,-1.87615 1.57207,-2.27004 3.00838,-4.61126 4.32029,-6.98941 4.08003,-7.46299 6.88631,-14.96693 7.80206,-22.45557 0.55694,-4.49379 0.43665,-8.87372 -0.45474,-12.93714 -1.02759,-4.78205 -3.14926,-9.18069 -5.84589,-12.87247 -3.74878,-5.16906 -8.80758,-9.20868 -13.66899,-12.31342 -8.62724,-5.49691 -17.99522,-8.95782 -24.66384,-11.15715 0,0 0,0 0,0 -8.99699,-11.55335 -13.48259,-18.02517 -12.91453,-18.49649 0.56728,-0.47066 6.08255,5.10803 15.04522,15.20248 10e-6,0 10e-6,10e-6 10e-6,10e-6 6.94744,1.56815 16.47666,4.25036 25.58955,9.32095 5.49154,3.06296 11.34298,7.32648 16.09595,13.23572 3.41739,4.27543 6.17997,9.47602 7.67968,15.34397 1.24982,4.95971 1.59753,10.22359 1.08055,15.54279 -0.86339,8.76785 -3.75597,17.41122 -8.10181,25.67997 -1.38277,2.65307 -2.91815,5.28378 -4.62068,7.85867 -0.48053,0.72698 -0.98186,1.45932 -1.50878,2.19132 -0.14003,0.19455 -0.28577,0.39402 -0.43801,0.59768 0,0 1e-5,-7e-5 1e-5,-7e-5 0.0249,-0.52381 0.0485,-1.04647 0.0706,-1.56805 -2.1e-4,0.005 0.0169,-0.40538 0.0167,-0.40028 0.002,-0.0463 0.004,-0.0926 0.006,-0.13895 4.78053,10.59892 9.70291,21.60695 14.80402,33.08709 -19.47327,10.60579 -40.15736,21.83061 -61.65594,33.45975 -0.18113,-0.36418 -4.53946,-9.133 -4.72058,-9.49718 -2.63784,-5.30961 -8.09103,-16.29463 -10.72887,-21.60423 0.519,2.40115 0.41705,4.63065 -0.27287,6.43235 l 0,0 c -2.03878,1.69777 -4.32408,2.84186 -6.6459,3.47769 -4.8791,1.28259 -9.61076,1.03722 -13.74073,0.20566 -3.94376,-0.73144 -7.70079,-1.88018 -11.24363,-3.25235 l 0,0 c -1.32229,-0.59684 -2.64025,-1.19196 -3.95382,-1.7853 l 0,0 c -3.12993,-0.56131 -5.61974,-2.04015 -7.36261,-3.86976 l 0,0 c -2.37484,-2.2205 -4.14479,-4.69621 -5.52096,-7.10193 l 0,0 c -3.45494,-5.94915 -5.66006,-12.24127 -7.38585,-18.16677 l 0,0 c -1.70605,-5.78154 -3.03252,-11.54713 -4.10509,-17.16441 l 0,0 c -0.002,-0.0142 -1.31701,-7.94121 -1.31936,-7.95538 l 0,0 c 0.13941,-5.39963 2.0471,-10.14841 4.48814,-13.94527 l 0,0 c 2.67695,-4.09787 5.8983,-7.56303 9.15971,-10.53939 l 0,0 c 4.09902,-3.09508 8.08845,-6.1008 11.9566,-9.00848 l 0,0 c 1.59365,-1.93743 2.64374,-4.22658 2.74537,-6.47131 l 0,0 c 0.29299,-1.94924 -0.0812,-4.06267 -0.77861,-6.0482 l 0,0 c -1.60623,-3.23275 -3.16384,-6.34282 -4.67555,-9.33605 v 0 c 4.36784,-8.175 9.86561,-14.6157 15.24648,-19.44348 l 0,0 c 5.87125,-4.81109 11.81578,-8.15073 16.78189,-10.42699 l 0,0 c 5.5636,-2.55232 10.29491,-3.97206 13.5388,-4.71143 l 0,0 c 1.77595,-0.40489 3.15373,-0.61599 4.11805,-0.68979 l 0,0 c 0.49751,-0.0381 0.87912,-0.039 1.14548,-0.008 l 0,0 c 0,0 10e-6,0 10e-6,0 0.13466,0.0157 0.23878,0.0393 0.31241,0.0704 0.0371,0.0157 0.0663,0.0332 0.0876,0.0526 0.0222,0.0201 0.0358,0.0418 0.0411,0.0657 z"
         style="fill:#000000;stroke:none;stroke-width:1px;stroke-linecap:butt;stroke-linejoin:miter;stroke-opacity:1" />
      <path
         inkscape:original-d="m 567.09964,626.85577 16.97056,31.1127 c 0,0 -25.82404,31.94291 7.07107,36.76955"
         inkscape:path-effect="#path-effect195"
         inkscape:connector-curvature="0"
         id="path193"
         d="m 567.09964,626.85577 c 2.39183,-1.30464 11.10856,11.85863 21.16203,31.33835 -1.13642,2.45898 -2.32802,5.02197 -3.54396,7.59619 -0.10347,0.17009 -0.20647,0.34047 -0.3089,0.51109 -1.99843,3.3291 -3.56774,6.40835 -4.51658,9.5127 -0.55663,1.82583 -0.92377,3.46131 -0.95549,4.97597 -0.0347,1.54653 0.17632,2.95546 0.69225,4.08749 0.60072,1.54497 1.99847,2.94982 3.33109,4.03466 0,0 0,0 0,0 4.21945,3.37659 8.36205,4.59324 8.1812,5.8258 -0.10717,0.73034 -4.27555,2.66323 -11.30953,-0.10237 0,0 0,0 0,0 -2.34576,-0.92256 -5.03041,-2.63508 -7.13779,-5.59118 -1.52152,-2.25938 -2.5012,-4.96038 -2.73386,-7.85349 -0.21841,-2.67309 0.0435,-5.33805 0.68211,-7.89765 1.08325,-4.35142 2.9485,-8.48041 5.35176,-12.39291 0.12349,-0.20105 0.24777,-0.4005 0.37274,-0.59836 1.15785,-0.85379 2.37143,-1.7295 3.51201,-2.55923 -9.16897,-15.80293 -15.18835,-29.57291 -12.77908,-30.88706 z"
         style="fill:#000000;stroke:none;stroke-width:1px;stroke-linecap:butt;stroke-linejoin:miter;stroke-opacity:1" />
      <path
         inkscape:original-d="m 602.45498,727.26494 -7.07107,-26.87006 c 0,0 42.56378,-42.63417 -7.12224,-42.20076"
         inkscape:path-effect="#path-effect199"
         inkscape:connector-curvature="0"
         id="path197"
         d="m 602.45498,727.26494 c -2.11325,0.55612 -6.38363,-10.37557 -10.91283,-27.8973 10e-6,-1e-5 3e-5,-6e-5 3e-5,-6e-5 0.0152,-0.0513 0.0305,-0.10274 0.0458,-0.15413 -0.003,0.011 0.13375,-0.4499 0.13047,-0.43887 -0.006,0.0187 0.51682,-1.73256 0.51125,-1.71384 0,0 2e-5,-4e-5 2e-5,-4e-5 0.0967,-0.10976 0.1956,-0.2231 0.29767,-0.34036 0,0 10e-6,-10e-6 10e-6,-10e-6 0.375,-0.43079 0.75182,-0.87311 1.13617,-1.32981 1.26352,-1.50175 2.5298,-3.07484 3.79509,-4.72646 1.82033,-2.40441 3.67623,-4.9411 5.28887,-7.5233 1.24123,-1.98748 2.30264,-3.94312 3.15722,-5.91864 0.94018,-2.24907 1.63534,-4.20409 1.7345,-5.99913 0.0892,-1.56257 -0.12803,-3.02735 -0.77427,-3.97814 -0.79434,-1.61497 -3.07418,-2.87263 -5.12502,-3.87928 0,0 -10e-6,0 -10e-6,0 -7.27417,-3.3073 -13.46572,-3.73202 -13.47827,-5.17145 -0.007,-0.76378 5.5859,-3.91087 15.65847,-1.79556 0,0 0,0 0,0 3.00042,0.571 6.76631,2.0579 9.88153,5.56035 2.12847,2.6904 3.30599,6.0438 3.25916,9.51825 -0.0416,3.41648 -0.83333,6.63389 -2.04812,9.54706 -1.03613,2.55365 -2.30509,5.01011 -3.76732,7.38403 -1.91141,3.10314 -4.04981,5.89744 -6.17171,8.38793 -1.47414,1.75032 -2.97653,3.39244 -4.49327,4.92733 -0.46107,0.46669 -0.92692,0.92699 -1.40074,1.38073 0,0 0,10e-6 0,10e-6 -0.12895,0.12348 -0.26088,0.24888 -0.39631,0.37607 0,0 10e-6,-4e-5 10e-6,-4e-5 0.11103,-0.5116 0.22086,-1.02126 0.32947,-1.52906 -8.4e-4,0.004 0.0844,-0.39547 0.0836,-0.39155 0.01,-0.0459 0.0195,-0.0917 0.0293,-0.13752 0,0 10e-6,-4e-5 10e-6,-4e-5 3.79344,14.11373 5.34486,25.2861 3.2293,25.84283 z"
         style="fill:#000000;stroke:none;stroke-width:1px;stroke-linecap:butt;stroke-linejoin:miter;stroke-opacity:1" />
      <path
         sodipodi:nodetypes="ccccccccc"
         inkscape:original-d="m 243.42151,672.46416 c 4.24264,1.94455 31.28948,-22.45064 31.28948,-22.45064 -1.41422,-19.97577 -24.39519,-12.02082 -24.39519,-12.02082 -15.20279,19.44544 -6.36396,32.35014 -6.36396,32.35014 l 10.42983,-17.50089 7.77817,-1.59099 V 643.296 l 4.24264,2.82843 0.70711,-3.53553"
         inkscape:path-effect="#path-effect203"
         inkscape:connector-curvature="0"
         id="path201"
         d="m 243.42151,672.46416 c 0.0404,-0.0882 0.36513,-0.0318 1.00321,-0.21239 l 0,0 0,0 0,0 c 0.41029,-0.12787 0.79338,-0.29817 1.38533,-0.60428 l 0,0 c 1.17326,-0.61151 2.1989,-1.28092 3.89198,-2.48117 l 0,0 c 3.08014,-2.19068 5.84401,-4.4063 10.22031,-8.09301 h 0 c 2.9647,-2.4994 6.06993,-5.19966 9.56766,-8.32754 l 0,0 c 1.00519,-0.89896 2.03398,-1.8258 3.07474,-2.77363 l 0,0 c 0.28368,-0.25835 0.56883,-0.5188 0.85389,-0.78048 l 0,0 c -0.006,0.13116 -0.0123,0.26318 -0.0192,0.39601 0,0 0,0 0,0 -0.13096,0.10329 0.18698,-0.14749 0.056,-0.0442 0.003,-0.002 0.0168,-0.0133 0.0197,-0.0155 -0.39427,-3.1883 -1.5304,-6.70691 -4.22059,-8.61622 l 0,0 c -1.87435,-1.6671 -4.55594,-2.48855 -7.40165,-2.75096 l 0,0 c -2.45415,-0.20498 -4.99931,0.0347 -7.58261,0.54893 l 0,0 c -0.8385,0.16905 -1.67245,0.36787 -2.49627,0.60218 l 0,0 c -0.23267,0.0662 -0.46138,0.13412 -0.68527,0.20534 0,0 -1e-5,0 -1e-5,0 l 0,0 c 0.0735,-0.0748 0.14918,-0.15008 0.22712,-0.22552 0,0 0,0 0,0 -0.0161,0.005 -0.0322,0.01 -0.0483,0.015 -0.006,0.002 -0.0115,0.004 -0.0172,0.005 -0.81011,1.06411 -1.59137,2.16312 -2.32697,3.29556 -1.9099,2.94021 -3.43464,5.98679 -4.42234,9.15885 -1.08179,3.13601 -1.627,6.32973 -1.48484,9.41244 0.32783,2.94108 0.65877,5.7793 1.00812,8.55913 3.54994,-6.69532 6.74063,-12.5799 9.69598,-17.82732 2.81154,-0.41585 5.3933,-0.80593 7.80381,-1.17865 0.20336,-2.96529 0.35313,-5.53682 0.46016,-7.76414 1.71916,1.13627 3.1576,2.10274 4.30802,2.89047 0.23549,-2.10073 0.63362,-3.30629 0.81728,-3.26956 0.18299,0.0366 0.0865,1.31092 -0.59694,3.80152 -1.1075,-0.71755 -2.50275,-1.64021 -4.17726,-2.76639 0.107,2.34066 0.25682,5.03843 0.46016,8.14578 -2.3764,0.60649 -4.93825,1.26837 -7.75253,2.00333 -3.25171,5.16785 -6.94231,10.82974 -11.16372,17.17441 -1.28319,-2.98631 -2.62369,-6.05225 -4.03193,-9.24309 -0.22119,-3.65561 0.31554,-7.3858 1.47546,-10.9943 1.27628,-3.63942 3.11247,-7.10055 5.35086,-10.38347 0.86225,-1.26463 1.77053,-2.48281 2.70757,-3.6534 0.006,-0.002 0.0127,-0.005 0.019,-0.007 0.0177,-0.006 0.0353,-0.0127 0.053,-0.019 0,0 0,0 0,0 0.0892,-0.0509 0.52766,-0.30056 0.61689,-0.35146 l 0,0 c 0,0 1e-5,0 1e-5,0 0.26467,-0.0833 0.52696,-0.16047 0.78606,-0.23318 l 0,0 c 0.91782,-0.25766 1.83886,-0.47372 2.75769,-0.6541 l 0,0 c 2.81825,-0.55981 5.68286,-0.79543 8.52366,-0.54295 l 0,0 c 3.35787,0.27357 6.6604,1.41963 9.22276,3.64702 l 0,0 c 3.28832,3.34 4.47103,7.96837 4.58646,11.98637 -0.004,0.004 -0.0183,0.0183 -0.0218,0.0219 -0.002,0.002 -0.0607,0.0606 -0.0623,0.0622 0,0 0,0 0,0 -0.15962,0.27004 -0.31868,0.53889 -0.47714,0.80657 l 0,0 c -0.29572,0.25801 -0.59069,0.51379 -0.88362,0.7668 l 0,0 c -1.07502,0.92849 -2.13675,1.8319 -3.17612,2.70607 l 0,0 c -3.59369,3.02261 -6.8677,5.65647 -9.9537,8.01626 -4.4428,3.39925 -7.68821,5.66271 -10.88203,7.51355 l 0,0 c -1.77115,1.02928 -3.06835,1.65881 -4.33511,2.07697 l 0,0 c -0.65134,0.21706 -1.17028,0.32312 -1.63674,0.344 l 0,0 c 0,0 0,0 0,-10e-6 -0.82727,0.0554 -1.12901,-0.27877 -1.09672,-0.34922 z"
         style="fill:#000000;stroke:none;stroke-width:1px;stroke-linecap:butt;stroke-linejoin:miter;stroke-opacity:1" />
      <path
         sodipodi:nodetypes="cc"
         inkscape:original-d="m 184.55487,535.99255 c 1.11673,-0.29388 14.76405,24.75254 30.75915,52.3259"
         inkscape:path-effect="#path-effect211"
         inkscape:connector-curvature="0"
         id="path209"
         d="m 184.55487,535.99255 c -0.0643,-0.24434 0.38213,-0.57403 0.55808,-0.57572 0,0 0,0 0,0 0.24019,-0.0679 0.4633,-0.0522 0.71242,-0.0582 0.50503,-0.004 1.00438,0.14926 1.56515,0.33635 1.14926,0.40367 2.37151,1.20142 3.73297,2.29094 2.82358,2.27633 5.931,5.8069 9.17232,10.30981 2.13789,2.97138 4.29729,6.33421 6.37302,9.97492 8.30131,14.56001 12.15706,28.01064 8.64519,30.04785 -3.58499,2.07963 -13.24403,-8.10438 -21.55758,-22.68595 -2.06984,-3.63042 -3.86659,-7.19423 -5.34214,-10.51763 -2.19612,-4.93695 -3.71376,-9.49887 -4.3722,-12.76678 -0.33323,-1.58852 -0.41844,-2.99767 -0.35037,-3.99181 0.0139,-0.48462 0.17864,-0.9384 0.30013,-1.25721 0.0442,-0.1501 0.2077,-0.32352 0.28712,-0.43883 0,0 0,0 0,0 0.008,-0.11402 0.34019,-0.42336 0.27589,-0.6677 z"
         style="fill:#000000;stroke:none;stroke-width:1px;stroke-linecap:butt;stroke-linejoin:miter;stroke-opacity:1" />
      <path
         inkscape:original-d="m 237.94143,564.98393 c 0,0 -7.01452,-67.14209 -62.57895,-65.05383"
         inkscape:path-effect="#path-effect215"
         inkscape:connector-curvature="0"
         id="path213"
         d="m 237.94143,564.98392 c -0.0385,0.004 -0.0769,0.004 -0.11609,-1.8e-4 -0.0378,-0.004 -0.076,-0.0124 -0.11456,-0.0245 -0.0768,-0.0241 -0.15523,-0.0637 -0.23498,-0.11849 0,0 0,0 0,0 l 0,0 c -0.15837,-0.10833 -0.32406,-0.27658 -0.49581,-0.50096 l 0,0 c -0.33881,-0.44263 -0.71057,-1.11159 -1.11564,-1.97306 l 0,0 c -0.78167,-1.66216 -1.738,-4.14548 -2.89007,-7.12378 l 0,0 c -2.15007,-5.54676 -5.1931,-13.42871 -9.71745,-21.35602 -2.19681,-3.81928 -4.77924,-7.74471 -7.79615,-11.41512 -3.03361,-3.69072 -6.24274,-6.80379 -9.64567,-9.36446 -4.32413,-3.29229 -8.79931,-5.6074 -12.9281,-7.23188 -9.88011,-3.91075 -17.46495,-4.36273 -17.52443,-5.9454 -0.0416,-1.10666 7.35455,-4.2382 19.75142,-1.55637 5.08128,1.10943 10.72521,3.27544 16.22191,6.93755 4.27685,2.87784 8.26546,6.49001 11.83446,10.79112 3.56196,4.29264 6.36968,8.86536 8.53724,13.33399 4.52252,9.25769 6.53749,18.04793 7.26586,24.344 l 0,0 c 0.39377,3.38246 0.42442,6.11419 0.22216,8.03983 l 0,0 c -0.10359,0.9862 -0.26693,1.7545 -0.47879,2.28982 l 0,0 c -0.10696,0.27022 -0.22495,0.4795 -0.354,0.6261 l 0,0 c 0,0 0,0 0,0 -0.0648,0.0734 -0.13191,0.13076 -0.20159,0.1721 -0.0349,0.0207 -0.0704,0.0373 -0.10641,0.0499 -0.0373,0.013 -0.0748,0.0215 -0.11331,0.0258 z"
         style="fill:#000000;stroke:none;stroke-width:1px;stroke-linecap:butt;stroke-linejoin:miter;stroke-opacity:1" />
      <path
         sodipodi:nodetypes="cccc"
         inkscape:original-d="m 209.30361,449.01842 c 0,0 -13.78858,-2.47488 -22.98097,9.89949 0,0 -17.36013,71.44244 -25.63783,76.12489 0,0 -10.40685,-4.17588 -21.90254,-2.73528"
         inkscape:path-effect="#path-effect219"
         inkscape:connector-curvature="0"
         id="path217"
         d="m 209.30355,449.01841 c 0.0339,0.87398 -2.85303,1.81021 -7.77225,2.70611 -3.73064,1.27531 -8.52019,3.90442 -11.64067,8.86888 0,1e-5 1e-5,0 1e-5,0 0.007,-0.0111 0.0132,-0.0223 0.0198,-0.0334 7.6e-4,-0.001 0.056,-0.095 0.0568,-0.0963 0.002,-0.003 0.22152,-0.37638 0.22322,-0.37925 0,0 0,-10e-6 0,-10e-6 -0.0382,0.205 -0.0766,0.41002 -0.11544,0.61551 -0.14442,0.76464 -0.29417,1.53814 -0.44932,2.32362 -0.52265,2.64599 -1.10344,5.40867 -1.74339,8.2873 0,0 0,0 0,0 -1.72787,7.7733 -3.87986,16.37626 -6.4781,25.32486 0.001,-0.004 -0.22942,0.78863 -0.22823,0.78452 -2.70972,9.28343 -5.46189,17.56966 -8.72897,25.37671 0,10e-6 0,10e-6 0,10e-6 -1.41043,3.38581 -2.85751,6.53473 -4.63725,9.55649 -0.65677,1.12703 -1.40859,2.27861 -2.32729,3.40899 -1.04753,0.82843 -2.48482,1.81675 -4.38874,2.73537 -2.88278,-0.76638 -5.49965,-1.5113 -7.85032,-2.23459 -8.54266,-2.68872 -14.30793,-2.73333 -14.46111,-3.95567 -0.12774,-1.0193 5.56508,-3.65304 16.02713,-2.30855 1.74764,0.45337 3.57001,0.98303 5.46645,1.58882 -0.56561,0.16274 -0.99466,-0.0638 -1.08537,-0.51666 0.45236,-0.70908 0.85433,-1.55776 1.32415,-2.56642 1.24554,-2.71615 2.24467,-5.56804 3.40034,-8.94587 0,0 0,0 0,0 2.70339,-7.95519 4.88628,-15.45741 7.66191,-24.94383 -0.009,0.0297 0.23603,-0.80639 0.22735,-0.77674 2.62316,-8.96916 4.96891,-17.09066 7.26788,-24.81355 0,0 0,-10e-6 0,-10e-6 0.82967,-2.78721 1.64511,-5.49622 2.4186,-8.03584 0.042,-0.13792 0.64097,-2.09738 0.68298,-2.23529 0.0392,-0.12785 0.14049,-0.45841 0.17965,-0.58626 0,-1e-5 1e-5,-1e-5 1e-5,-2e-5 0.0352,-0.0813 0.26352,-0.60733 0.29877,-0.68859 -0.0233,0.0536 0.0993,-0.22894 0.0761,-0.1753 0.009,-0.0203 0.0176,-0.0407 0.0264,-0.061 0,0 0,-2e-5 0,-2e-5 5.8849,-7.16226 13.23935,-9.81634 18.20175,-10.30476 5.35003,0.49934 8.31318,1.20491 8.34716,2.08074 z"
         style="fill:#000000;stroke:none;stroke-width:1px;stroke-linecap:butt;stroke-linejoin:miter;stroke-opacity:1" />
      <path
         sodipodi:nodetypes="ccc"
         inkscape:original-d="M 406.74317,691.86253 402.48528,765 c -40.5384,25.73171 -91.8535,79.26546 -54.19596,117.85534"
         inkscape:path-effect="#path-effect223"
         inkscape:connector-curvature="0"
         id="path221"
         d="m 406.74317,691.86253 c 2.2983,0.1338 1.95078,30.97115 -0.64823,75.26061 -9.90109,6.81408 -20.01385,14.88583 -29.924,24.287 -0.38321,0.36353 -0.76469,0.72769 -1.14443,1.09247 -10.18014,9.49599 -18.54585,18.93457 -25.01028,29.03644 -6.88234,10.90143 -10.71412,20.74849 -11.2146,30.28956 0,0 0,10e-6 0,10e-6 -0.33996,5.66067 0.53629,10.73479 1.89069,14.90003 3.30494,10.27393 8.3246,15.41668 7.59701,16.1267 -0.21231,0.20717 -7.13726,-2.62671 -12.69462,-14.04974 -2.19111,-4.53769 -3.88656,-10.34343 -4.05644,-17.0765 0,0 0,0 0,0 -0.2146,-11.15082 3.35409,-23.05309 10.57314,-35.05645 6.64672,-11.19478 15.44228,-21.57887 26.10095,-31.48775 0.36672,-0.33033 0.73543,-0.65969 1.10611,-0.98807 9.57876,-8.48552 19.58192,-15.5172 29.55715,-21.31998 2.36508,-40.97397 5.569,-71.14815 7.86755,-71.01433 z"
         style="fill:#000000;stroke:none;stroke-width:1px;stroke-linecap:butt;stroke-linejoin:miter;stroke-opacity:1" />
      <path
         inkscape:connector-curvature="0"
         id="path225"
         d="m 466.23938,122.86091 c -41.83691,3.71124 -84.61159,3.12862 -125.2465,15.48962 -67.71863,17.81433 -128.43841,60.67193 -167.00704,119.22697 -24.26612,36.58571 -41.78087,77.38641 -54.15696,119.422 C 100.23605,375.77282 88.49576,357.02592 79.753045,341.85409 66.49949,318.72953 65.220087,291.21364 61.126031,265.78744 c -6.008804,-1.82889 -5.578814,9.06249 -8.411533,13.10376 -8.429032,18.33968 -16.888433,37.58875 -15.334353,58.35829 -1.50812,24.10929 13.356239,45.23884 31.248371,59.85877 7.167077,6.50247 15.249949,11.83483 23.184015,17.32648 -24.514941,21.82756 -54.95583,41.1714 -65.595202,74.05561 -9.481531,25.8092 2.014288,54.08857 20.221596,72.97011 8.64323,8.59647 16.061734,19.45156 26.731952,25.47518 6.990464,-1.41351 -0.17911,-9.12357 -2.090293,-12.18974 -15.294988,-22.92739 -21.88188,-54.38006 -7.955596,-79.54632 9.773998,-19.84136 28.241732,-32.75273 45.851452,-45.14158 6.73056,-6.80839 5.97279,-17.94486 12.99861,-24.82055 16.50302,-19.39552 43.60899,-22.80246 67.29393,-22.60256 12.17055,0.24763 24.43717,1.00377 36.55134,2.83947 -11.29291,3.28171 -24.36605,3.1084 -34.94102,8.33613 -0.0613,6.20456 9.41899,5.03625 13.45436,7.67321 13.34575,4.31372 26.87969,8.0419 40.12002,12.68097 -2.93764,3.40644 -12.09717,9.91347 -4.53266,13.41845 11.909,3.9294 26.2533,1.6677 35.01028,12.19604 7.53892,5.8786 14.76595,12.23141 22.62996,17.65712 6.79759,-1.2645 0.7083,-11.22413 1.77883,-15.97066 -1.04502,-9.67899 -2.29237,-19.38044 -2.89748,-29.03005 13.48459,-1.71452 27.50682,-4.72635 40.95142,-4.77849 8.23384,6.77725 13.28609,16.9244 21.3237,23.57206 30.25295,-17.21917 61.16779,-34.76795 95.15557,-43.38211 15.24787,-1.05889 26.0791,-14.11993 39.19194,-20.6 37.73986,-22.36656 77.12845,-44.07756 119.5121,-56.0465 5.32162,-2.44208 14.78225,0.58547 16.86008,-5.29778 -21.25017,-10.74384 -45.36031,-16.52844 -68.98986,-20.33484 -26.32098,-2.44987 -53.56097,-3.64216 -79.54676,0.12705 39.30322,-25.08731 82.05259,-44.7916 125.37334,-61.78069 14.38275,-5.66818 29.51711,-9.35227 44.2577,-13.64771 3.62953,-5.6642 -6.63993,-6.80229 -9.89396,-8.72835 -41.58986,-17.18675 -87.14741,-23.73831 -131.91958,-19.54909 -48.82823,3.66588 -94.25377,25.07117 -136.22627,48.95902 -4.6369,2.19918 -9.29314,5.59356 -11.96511,9.28759 -3.26242,1.24209 -6.52033,-0.73129 -4.05205,-4.2233 16.68367,-53.40303 53.7066,-101.03642 104.76355,-125.49898 2.47136,-1.36638 11.98896,-5.07943 5.00096,-7.65254 z"
         style="opacity:1;fill:#000000;fill-opacity:0.50196078;stroke-width:1.41421354" />
      <path
         inkscape:connector-curvature="0"
         id="path227"
         d="m 541.44958,426.1158 c -83.85663,1.39902 -161.26257,43.29358 -224.2786,95.93923 -7.35727,6.72539 -16.0654,12.60535 -22.36908,20.1202 4.33759,10.15285 14.87675,16.6429 21.44522,25.47241 31.18405,36.53475 59.41253,75.57243 85.32238,115.9517 9.64156,17.90184 3.57093,39.05559 4.26197,58.30869 -1.27791,10.38189 1.99795,25.07551 -9.70614,30.59619 -17.99759,14.77927 -35.64484,30.89898 -48.62584,50.37258 -12.03764,17.09989 -13.44445,42.32991 -0.78333,59.15461 49.95152,1.20476 100.54118,0.17204 150.73812,0.5163 85.1364,0 170.27279,0 255.40918,0 5.01346,-3.81147 1.13109,-12.65835 2.19796,-18.51679 -1.21126,-45.20897 -1.41416,-90.7066 -3.72067,-135.72027 -36.2851,-36.75822 -72.92821,-73.27505 -109.34943,-109.94191 1.77123,-56.67952 3.34701,-113.65972 7.71465,-169.96526 -1.78889,-6.41206 -11.08636,-5.70416 -16.16125,-8.3527 -29.79962,-9.04191 -60.90859,-14.24686 -92.09514,-13.93498 z m -93.72756,45.9067 c 14.91352,4.04797 26.04167,16.91981 40.85199,21.06405 9.12674,-1.8124 18.98002,-4.98636 27.81747,-5.44693 5.00943,13.38467 9.90856,26.81208 14.64209,40.2968 -7.91586,6.18926 -17.50043,10.57375 -24.66864,17.4125 -2.86671,10.35499 -0.62125,22.89919 -7.12079,31.88058 -15.45044,9.7977 -31.08891,19.91744 -48.2987,26.29829 -9.43299,0.47542 -18.23924,-11.99259 -26.56675,-2.89153 -7.04524,4.27897 -13.95213,8.75878 -21.28726,12.55901 -7.79764,-11.02173 -16.87558,-21.79653 -21.29054,-34.60404 3.21267,-8.05817 13.32893,-12.92822 13.9405,-21.83192 -6.86423,-13.00316 -6.78165,-28.45951 -6.88601,-42.8214 16.81423,-15.1253 32.49043,-34.00562 54.58534,-41.36298 1.40551,-0.30486 2.83344,-0.63226 4.2813,-0.55243 z m 131.07716,126.4644 c 8.2591,4.23831 12.38642,14.99008 22.25454,17.27992 19.05485,5.35435 39.77888,17.30127 42.73576,38.78867 2.98751,17.21438 -5.96703,33.28587 -12.93655,48.03841 3.87863,10.12909 9.33596,20.20401 13.06913,30.18252 -19.40806,10.69407 -38.77942,21.47375 -58.50204,31.5795 -5.2302,-7.72462 -7.64327,-17.45732 -13.94878,-24.3289 -7.33725,2.25587 -15.31342,6.73758 -23.57483,3.96367 -11.56169,-2.1363 -23.92689,-7.42158 -28.23456,-19.28523 -5.49336,-13.708 -11.17226,-28.75273 -9.43269,-43.80472 4.00871,-13.62365 18.83295,-19.6459 26.21819,-30.97736 3.32151,-6.88245 -3.81646,-13.80621 -3.68659,-19.60216 9.73188,-16.40005 26.61054,-28.80787 45.52743,-31.83985 z"
         style="opacity:1;fill:#d40000;fill-opacity:0.50196078;stroke-width:1.41421354" />
      <path
         inkscape:connector-curvature="0"
         id="path229"
         d="m 202.84211,402.95364 c -25.68107,1.35578 -54.3755,3.80296 -74.481,21.63581 -11.45156,10.66112 -15.14748,28.26463 -8.80016,42.60042 6.89138,21.3437 12.9858,43.32718 21.36315,63.94518 6.32443,0.19465 15.04035,2.17906 20.71523,-0.94914 9.53985,-24.32533 14.25104,-50.4311 24.53881,-74.40642 4.37781,-4.61984 13.48633,-7.63121 18.26877,-6.22585 -13.21058,1.61131 -17.81296,15.75875 -19.70974,26.97838 0.12386,6.5685 -6.67631,14.72606 -2.0697,20.5193 11.2538,3.61567 24.02304,5.02091 33.01563,13.7285 13.86666,12.52618 21.40579,31.66429 21.52274,50.14038 -9.27775,-22.88416 -21.49674,-49.64047 -47.21595,-57.52701 -4.57415,-2.31697 -11.77936,-4.34071 -12.83841,2.86157 -4.59608,9.8792 -6.68889,22.31519 -15.28842,29.54104 -6.3586,1.59604 -13.95383,-5.80192 -19.19961,-1.08828 2.36747,9.01239 7.61511,18.07515 14.24986,24.84266 9.50842,4.79915 17.0712,14.06463 16.81036,24.96142 1.59765,19.12749 -2.86853,38.35163 -10.76404,55.6156 1.24257,8.72844 13.27211,8.20006 19.84366,10.14346 8.80575,2.22684 19.35923,0.5982 27.19406,3.8136 5.50945,10.88865 16.82045,18.43434 28.91825,18.85988 2.92086,9.78217 14.99612,9.35621 23.11632,10.28067 9.85403,9.75198 12.07982,27.63093 26.78443,32.44128 11.24374,-3.57858 20.62753,-12.32633 30.8224,-18.32572 8.83113,-5.20337 16.32643,-12.80911 24.54185,-18.4825 6.49025,1.46702 12.02302,7.25421 18.82672,6.95229 3.98295,-4.8821 -4.21501,-10.27208 -5.9095,-14.82978 -28.72835,-41.38251 -59.91001,-81.20395 -96.10675,-116.36733 -11.69295,-6.02679 0.91289,-12.35982 5.54352,-18.59234 27.14941,-29.86072 54.52936,-60.29897 89.01646,-81.95341 8.4941,-4.54198 -4.22235,-11.27707 -6.57539,-16.15607 -5.16082,-5.00602 -10.00403,-14.43078 -18.64994,-11.47667 -11.22788,1.44299 -22.61506,2.36212 -33.65938,4.83097 -3.6378,5.20667 0.3369,12.87421 -0.12983,18.89301 0.40872,7.76153 2.94511,18.51822 1.23192,24.66864 -16.91798,-10.03997 -32.85017,-22.67852 -52.57449,-26.79824 -2.19248,-1.572 -11.55404,-1.48908 -6.1209,-5.42484 6.81993,-4.34832 9.54166,-12.24933 -1.3362,-12.41426 -15.47116,-4.91331 -31.12623,-9.33931 -46.28578,-15.17119 9.88485,-3.74018 20.90279,-4.5742 30.8862,-7.31137 -0.11845,-6.31087 -10.31067,-3.98791 -14.93486,-4.80336 -1.52041,-0.0245 -3.04019,0.0329 -4.56029,0.0497 z m -17.05895,134.39448 c 12.56442,6.48963 18.95074,20.75873 24.89513,32.98544 1.96502,4.96615 4.40542,11.57051 2.46658,16.26345 -13.88246,-12.15744 -24.06053,-29.39693 -27.70974,-47.36787 0.1416,-0.35225 -0.22075,-1.79216 0.34803,-1.88102 z m 73.49768,99.67444 c 7.71907,-1.25002 16.35863,5.01541 14.08688,13.28035 -7.88666,7.96417 -17.38853,15.85141 -27.51087,19.98681 -7.71212,-10.19801 -3.21349,-26.13079 6.77276,-32.74788 2.16998,-0.54548 4.43324,-0.47514 6.65123,-0.51928 z"
         style="opacity:1;fill:#ffd5d5;fill-opacity:0.50196078;stroke-width:1.41421354" />
    </g>
  </g>
</svg>
